<svg id="Chainfailure" xmlns="http://www.w3.org/2000/svg" xmlns:xlink="http://www.w3.org/1999/xlink" viewBox="0 0 316.86 320.73"><defs><style>.cls-1{fill:#fff;}.cls-2{fill:#487185;stroke:#79b8d6;stroke-miterlimit:10;stroke-width:10px;}.cls-3{mask:url(#mask);}.cls-4{fill:#d0c6ac;}.cls-5{mask:url(#mask-2);}.cls-6{fill:#edb98a;}.cls-7{mask:url(#mask-3);}.cls-8{fill-opacity:0.1;}.cls-9{fill:#e6e6e6;}.cls-10{mask:url(#mask-4-2);}.cls-11{fill:#262e33;}.cls-12{mask:url(#mask-5);}.cls-13{opacity:0.6;}.cls-14{fill-opacity:0.16;}.cls-15{fill:#3a4c5a;}.cls-16{fill:#2f4351;}.cls-17{fill-opacity:0.7;}.cls-18{mask:url(#mask-6-3);}.cls-19{mask:url(#mask-7);}.cls-20{fill:#ff4f6d;}.cls-21{fill-opacity:0.6;}.cls-22{mask:url(#mask-8);}.cls-23{fill:#1d2633;}.cls-24{mask:url(#mask-9);}.cls-25{fill:#4a312c;}</style><mask id="mask" x="12.55" y="0" width="294.88" height="312.75" maskUnits="userSpaceOnUse"><g transform="translate(0 3.88)"><g id="mask-4"><path id="path-3" class="cls-1" d="M26,174.84a134,134,0,1,0,268.07,0h13.41V-3.88H12.55V174.84Z"/></g></g></mask><mask id="mask-2" x="12.55" y="40.21" width="294.88" height="272.54" maskUnits="userSpaceOnUse"><g transform="translate(0 3.88)"><g id="mask-6"><path id="path-5" class="cls-1" d="M186.79,197.86V218.4h4.47a80.43,80.43,0,0,1,80.43,80.42v10.06H48.29V298.82a80.43,80.43,0,0,1,80.42-80.42h4.47V197.86a62.59,62.59,0,0,1-35.4-50,13.4,13.4,0,0,1-11.51-13.27V119a13.41,13.41,0,0,1,11.17-13.22V98.88h0A62.55,62.55,0,0,1,160,36.33h0a62.56,62.56,0,0,1,62.55,62.55v6.89A13.41,13.41,0,0,1,233.71,119v15.64A13.41,13.41,0,0,1,222.2,147.9,62.58,62.58,0,0,1,186.79,197.86Z"/></g></g></mask><mask id="mask-3" x="48.29" y="40.21" width="223.4" height="272.54" maskUnits="userSpaceOnUse"><g transform="translate(0 3.88)"><g id="mask-6-2" data-name="mask-6"><path id="path-5-2" data-name="path-5" class="cls-1" d="M186.79,197.86V218.4h4.47a80.43,80.43,0,0,1,80.43,80.42v10.06H48.29V298.82a80.43,80.43,0,0,1,80.42-80.42h4.47V197.86a62.59,62.59,0,0,1-35.4-50,13.4,13.4,0,0,1-11.51-13.27V119a13.41,13.41,0,0,1,11.17-13.22V98.88h0A62.55,62.55,0,0,1,160,36.33h0a62.56,62.56,0,0,1,62.55,62.55v6.89A13.41,13.41,0,0,1,233.71,119v15.64A13.41,13.41,0,0,1,222.2,147.9,62.58,62.58,0,0,1,186.79,197.86Z"/></g></g></mask><mask id="mask-4-2" x="12.55" y="189.89" width="294.88" height="122.87" maskUnits="userSpaceOnUse"><g transform="translate(0 3.88)"><g id="react-mask-2"><path id="react-path-1" class="cls-1" d="M197.92,218.73a80.44,80.44,0,0,1,73.77,80.15v10H48.29v-10a80.42,80.42,0,0,1,74.89-80.23c0,.41-.05.83-.05,1.26,0,13.25,16.75,24,37.42,24s37.41-10.74,37.41-24C198,219.51,198,219.12,197.92,218.73Z"/></g></g></mask><mask id="mask-5" x="48.29" y="195.4" width="223.4" height="117.36" maskUnits="userSpaceOnUse"><g transform="translate(0 3.88)"><g id="react-mask-2-2" data-name="react-mask-2"><path id="react-path-1-2" data-name="react-path-1" class="cls-1" d="M197.92,218.73a80.44,80.44,0,0,1,73.77,80.15v10H48.29v-10a80.42,80.42,0,0,1,74.89-80.23c0,.41-.05.83-.05,1.26,0,13.25,16.75,24,37.42,24s37.41-10.74,37.41-24C198,219.51,198,219.12,197.92,218.73Z"/></g></g></mask><mask id="mask-6-3" x="138.89" y="151.91" width="42.21" height="33.51" maskUnits="userSpaceOnUse"><g transform="translate(0 3.88)"><g id="react-mask-4"><path id="react-path-3" class="cls-1" d="M138.9,162.7a21.22,21.22,0,0,0,42.19-.1,2.34,2.34,0,0,0-2.07-2.28H141.1A2.38,2.38,0,0,0,138.9,162.7Z"/></g></g></mask><mask id="mask-7" x="138.89" y="164.2" width="42.21" height="36.86" maskUnits="userSpaceOnUse"><g transform="translate(0 3.88)"><g id="react-mask-4-2" data-name="react-mask-4"><path id="react-path-3-2" data-name="react-path-3" class="cls-1" d="M138.9,162.7a21.22,21.22,0,0,0,42.19-.1,2.34,2.34,0,0,0-2.07-2.28H141.1A2.38,2.38,0,0,0,138.9,162.7Z"/></g></g></mask><mask id="mask-8" x="12.55" y="0" width="294.88" height="312.75" maskUnits="userSpaceOnUse"><g transform="translate(0 3.88)"><g id="react-mask-5"><rect id="react-path-7" class="cls-1" x="12.55" y="-3.88" width="294.88" height="312.75"/></g></g></mask><mask id="mask-9" x="11.43" y="0" width="294.88" height="312.75" maskUnits="userSpaceOnUse"><g transform="translate(0 3.88)"><g id="react-mask-6"><path id="react-path-8" class="cls-1" d="M207,182.54a13.93,13.93,0,0,0,3.83,6.47c1.81,1.57,5,1.18,7.31,1.25,1.87.05,3.74.06,5.6,0a.92.92,0,0,1,.6,1.67l-.44.29c-1.17.73-2.39,1.41-3.63,2a33,33,0,0,1-8.91,3.05,21.37,21.37,0,0,1-6.32.2,11.56,11.56,0,0,0,1.9,2.17c1.93,1.67,5.38,1.26,7.8,1.33,2,.06,4,.06,6,0a1,1,0,0,1,.64,1.78l-.47.32c-1.25.78-2.55,1.5-3.87,2.16a34.83,34.83,0,0,1-9.52,3.26,20.54,20.54,0,0,1-17-4.14,27.89,27.89,0,0,1-3.78-3.75v-2.73A62.72,62.72,0,0,0,207,182.54ZM102.26,165.45q-1.24,2.6-2.58,5.14c-5.36,10.17-12,23-25.14,23.9a1.24,1.24,0,0,0-.75,2.23c12.42,9.44,40.69,15.19,50.76,13.38a59.35,59.35,0,0,0,8.63-2.19v-10A62.76,62.76,0,0,1,102.26,165.45Zm128-92.61a81.1,81.1,0,0,1-1.92,18.56c-1.11,5.42-4.82,9.69-6,15-4.5-15.28-21.68-20.38-31.94-30.8,2.23,4.24,5.64,7.76,7.87,11.93C188,81.2,178,72,173.68,60.39a32.86,32.86,0,0,1-6.82,16.38c-3.36,4.24-8.47,8.79-13.73,10.44,2.71-6.16,5-12.53,7.15-18.91-2.25,2.92-9.71,15.34-11.58,18.42a82.61,82.61,0,0,1-6.16,8.72c-1,1.29-2.15,2.55-3.27,3.78-.65.72-1.32,1.43-2,2.12-.24.24-2.05,2.24-1,.9-2.48,3.13-6.12,5.56-9.29,7.94a57.47,57.47,0,0,1-10.26,6.12,40.58,40.58,0,0,1-24.93,3.53c1.33.33,4.15-.94,5.53-1.32a25.35,25.35,0,0,0,5.71-2.26,59.28,59.28,0,0,0,10.25-7.17c-3,1.29-5.48,3.72-8.56,5.08a25,25,0,0,1-7.85,2,32.11,32.11,0,0,1-18.68-4C72.05,108.4,68.64,102,67,95.21c-1.87-7.89-.71-16.8,3.72-23.54.15,2.4,5,3.43,8.84,2.83C90.37,72.83,96.79,32,124.74,24.72,147,18.91,163,29,164.3,29.92c1.61,1,2.22.6,4,.16,7.08-1.69,14.8-2.46,22-1s13.87,5.08,19.61,9.36C220.61,46.34,229.81,59.16,230.25,72.84Z"/></g></g></mask></defs><title>chainfailure</title><g id="Avataaar"><g id="Avataaar_Circle" data-name="Avataaar/Circle"><g id="Circle"><g id="Circle-Background"><circle id="path-1" class="cls-2" cx="158.43" cy="162.31" r="153.43"/></g></g></g></g><g class="cls-3"><g id="Avataaar-2" data-name="Avataaar"><g id="Body"><path id="path-5-3" data-name="path-5" class="cls-4" d="M186.79,197.86V218.4h4.47a80.43,80.43,0,0,1,80.43,80.42v10.06H48.29V298.82a80.43,80.43,0,0,1,80.42-80.42h4.47V197.86a62.59,62.59,0,0,1-35.4-50,13.4,13.4,0,0,1-11.51-13.27V119a13.41,13.41,0,0,1,11.17-13.22V98.88h0A62.55,62.55,0,0,1,160,36.33h0a62.56,62.56,0,0,1,62.55,62.55v6.89A13.41,13.41,0,0,1,233.71,119v15.64A13.41,13.41,0,0,1,222.2,147.9,62.58,62.58,0,0,1,186.79,197.86Z" transform="translate(0 3.88)"/><g class="cls-5"><g id="Skin_-03-Brown" data-name="Skin/-03-Brown"><g id="Color"><rect class="cls-6" x="12.55" y="40.21" width="294.88" height="272.54"/></g></g></g><g class="cls-7"><path id="Neck-Shadow" class="cls-8" d="M222.54,124.58v25.69a62.55,62.55,0,1,1-125.1,0v-8.94a62.55,62.55,0,1,0,125.1,0Z" transform="translate(0 3.88)"/></g></g><g id="Clothing_Blazer-_-Shirt" data-name="Clothing/Blazer-+-Shirt"><g id="Shirt"><g id="Clothes"><path id="react-path-1-3" data-name="react-path-1" class="cls-9" d="M197.92,218.73a80.44,80.44,0,0,1,73.77,80.15v10H48.29v-10a80.42,80.42,0,0,1,74.89-80.23c0,.41-.05.83-.05,1.26,0,13.25,16.75,24,37.42,24s37.41-10.74,37.41-24C198,219.51,198,219.12,197.92,218.73Z" transform="translate(0 3.88)"/></g><g class="cls-10"><g id="Color_Palette_Black" data-name="Color/Palette/Black"><g id="_Color" data-name="Color"><rect class="cls-11" x="12.55" y="189.89" width="294.88" height="122.87"/></g></g></g><g class="cls-12"><g id="Shadowy" class="cls-13"><g id="Hola-_" data-name="Hola-"><ellipse class="cls-14" cx="160.55" cy="225.46" rx="44.27" ry="30.06"/></g></g></g></g><g id="Blazer"><path id="Saco" class="cls-15" d="M125.12,218.54a80.42,80.42,0,0,0-76.83,80.34h0v10h77.47a183.22,183.22,0,0,1-.64-90.34Zm70.21,90.34h76.36v-10A80.42,80.42,0,0,0,196,218.6a175.27,175.27,0,0,1,5.33,43.92A173.17,173.17,0,0,1,195.33,308.88Z" transform="translate(0 3.88)"/><path id="Pocket-hanky" class="cls-9" d="M214.72,282.07l10.67-8h0a4.5,4.5,0,0,1,5.43.05l7.36,5.73Z" transform="translate(0 3.88)"/><path id="Wing" class="cls-16" d="M125.36,217.28q-6.7,32.4,5.59,91.6H113.07L97.44,268.67l6.7-10.06-6.7-6.7,21.22-33.51A24.48,24.48,0,0,1,125.36,217.28Z" transform="translate(0 3.88)"/><path id="Wing-2" data-name="Wing" class="cls-16" d="M194.61,217.28q6.7,32.4-5.58,91.6H206.9l15.64-40.21-6.7-10.06,6.7-6.7L201.32,218.4A24.55,24.55,0,0,0,194.61,217.28Z" transform="translate(0 3.88)"/></g></g><g id="Face"><g id="Mouth_Smile" data-name="Mouth/Smile"><g id="Mouth"><path id="react-path-3-3" data-name="react-path-3" class="cls-17" d="M138.9,162.7a21.22,21.22,0,0,0,42.19-.1,2.34,2.34,0,0,0-2.07-2.28H141.1A2.38,2.38,0,0,0,138.9,162.7Z" transform="translate(0 3.88)"/></g><g class="cls-18"><rect id="Teeth" class="cls-1" x="143.23" y="151.91" width="34.63" height="17.87" rx="5.58" ry="5.58"/></g><g class="cls-19"><g id="Tongue"><circle class="cls-20" cx="154.4" cy="188.77" r="12.29"/><circle class="cls-20" cx="165.57" cy="188.77" r="12.29"/></g></g></g><g id="Nose_Default" data-name="Nose/Default"><path id="Nose" class="cls-14" d="M146.58,141.33c0,4.94,6,8.94,13.41,8.94h0c7.4,0,13.4-4,13.4-8.94" transform="translate(0 3.88)"/></g><g id="Eyes_Default-_" data-name="Eyes/Default-"><circle id="Eye" class="cls-21" cx="130.95" cy="125.1" r="6.7"/><circle id="Eye-2" data-name="Eye" class="cls-21" cx="189.03" cy="125.1" r="6.7"/></g><g id="Eyebrow_Outline_Default" data-name="Eyebrow/Outline/Default"><g id="I-Browse"><path id="Eyebrow" class="cls-21" d="M114.89,106.88c4.38-6.15,16.37-9.6,26.69-7.07a2.23,2.23,0,0,0,1.07-4.34c-12-2.94-25.88,1-31.4,8.82a2.23,2.23,0,1,0,3.64,2.59Z" transform="translate(0 3.88)"/><path id="Eyebrow-2" data-name="Eyebrow" class="cls-21" d="M205.08,106.88c-4.37-6.15-16.36-9.6-26.69-7.07a2.23,2.23,0,1,1-1.06-4.34c12-2.94,25.87,1,31.39,8.82a2.23,2.23,0,1,1-3.64,2.59Z" transform="translate(0 3.88)"/></g></g></g><g id="Top"><g class="cls-22"><g id="Top_Short-Hair_Shaggy-Mullet" data-name="Top/Short-Hair/Shaggy-Mullet"><g id="Hair"><path id="react-path-8-2" data-name="react-path-8" class="cls-23" d="M207,182.54a13.93,13.93,0,0,0,3.83,6.47c1.81,1.57,5,1.18,7.31,1.25,1.87.05,3.74.06,5.6,0a.92.92,0,0,1,.6,1.67l-.44.29c-1.17.73-2.39,1.41-3.63,2a33,33,0,0,1-8.91,3.05,21.37,21.37,0,0,1-6.32.2,11.56,11.56,0,0,0,1.9,2.17c1.93,1.67,5.38,1.26,7.8,1.33,2,.06,4,.06,6,0a1,1,0,0,1,.64,1.78l-.47.32c-1.25.78-2.55,1.5-3.87,2.16a34.83,34.83,0,0,1-9.52,3.26,20.54,20.54,0,0,1-17-4.14,27.89,27.89,0,0,1-3.78-3.75v-2.73A62.72,62.72,0,0,0,207,182.54ZM102.26,165.45q-1.24,2.6-2.58,5.14c-5.36,10.17-12,23-25.14,23.9a1.24,1.24,0,0,0-.75,2.23c12.42,9.44,40.69,15.19,50.76,13.38a59.35,59.35,0,0,0,8.63-2.19v-10A62.76,62.76,0,0,1,102.26,165.45Zm128-92.61a81.1,81.1,0,0,1-1.92,18.56c-1.11,5.42-4.82,9.69-6,15-4.5-15.28-21.68-20.38-31.94-30.8,2.23,4.24,5.64,7.76,7.87,11.93C188,81.2,178,72,173.68,60.39a32.86,32.86,0,0,1-6.82,16.38c-3.36,4.24-8.47,8.79-13.73,10.44,2.71-6.16,5-12.53,7.15-18.91-2.25,2.92-9.71,15.34-11.58,18.42a82.61,82.61,0,0,1-6.16,8.72c-1,1.29-2.15,2.55-3.27,3.78-.65.72-1.32,1.43-2,2.12-.24.24-2.05,2.24-1,.9-2.48,3.13-6.12,5.56-9.29,7.94a57.47,57.47,0,0,1-10.26,6.12,40.58,40.58,0,0,1-24.93,3.53c1.33.33,4.15-.94,5.53-1.32a25.35,25.35,0,0,0,5.71-2.26,59.28,59.28,0,0,0,10.25-7.17c-3,1.29-5.48,3.72-8.56,5.08a25,25,0,0,1-7.85,2,32.11,32.11,0,0,1-18.68-4C72.05,108.4,68.64,102,67,95.21c-1.87-7.89-.71-16.8,3.72-23.54.15,2.4,5,3.43,8.84,2.83C90.37,72.83,96.79,32,124.74,24.72,147,18.91,163,29,164.3,29.92c1.61,1,2.22.6,4,.16,7.08-1.69,14.8-2.46,22-1s13.87,5.08,19.61,9.36C220.61,46.34,229.81,59.16,230.25,72.84Z" transform="translate(0 3.88)"/></g><g class="cls-24"><g id="Skin_-03-Brown-2" data-name="Skin/-03-Brown"><g id="Color-2" data-name="Color"><rect class="cls-25" x="11.43" width="294.88" height="312.75"/></g></g></g><path id="Shadow" class="cls-14" d="M207,182.54a13.93,13.93,0,0,0,3.83,6.47c1.81,1.57,5,1.18,7.31,1.25,1.87.05,3.74.06,5.6,0a.92.92,0,0,1,.6,1.67l-.44.29c-1.17.73-2.39,1.41-3.63,2a33,33,0,0,1-8.91,3.05,21.37,21.37,0,0,1-6.32.2,11.56,11.56,0,0,0,1.9,2.17c1.93,1.67,5.38,1.26,7.8,1.33,2,.06,4,.06,6,0a1,1,0,0,1,.64,1.78l-.47.32c-1.25.78-2.55,1.5-3.87,2.16a34.83,34.83,0,0,1-9.52,3.26,20.54,20.54,0,0,1-17-4.14,27.89,27.89,0,0,1-3.78-3.75v-2.73A62.72,62.72,0,0,0,207,182.54ZM102.26,165.45q-1.24,2.6-2.58,5.14c-5.36,10.17-12,23-25.14,23.9a1.24,1.24,0,0,0-.75,2.23c12.42,9.44,40.69,15.19,50.76,13.38a59.35,59.35,0,0,0,8.63-2.19v-10A62.76,62.76,0,0,1,102.26,165.45Z" transform="translate(0 3.88)"/></g></g></g></g></g></svg>