<svg id="CR-MN" xmlns="http://www.w3.org/2000/svg" xmlns:xlink="http://www.w3.org/1999/xlink" viewBox="0 0 316.86 316.86"><defs><style>.cls-1{fill:#fff;}.cls-2{fill:#487185;stroke:#79b8d6;stroke-miterlimit:10;stroke-width:10px;}.cls-3{mask:url(#mask);}.cls-4{fill:#d0c6ac;}.cls-5{mask:url(#mask-2);}.cls-6{fill:#edb98a;}.cls-7{mask:url(#mask-3);}.cls-8{fill-opacity:0.1;}.cls-9{fill:#b7c1db;}.cls-10{mask:url(#mask-4-2);}.cls-11{fill:#b1e2ff;}.cls-12{mask:url(#mask-5);}.cls-13{fill:#f4f4f4;}.cls-14{mask:url(#mask-6-3);}.cls-15{fill-opacity:0.16;}.cls-16{fill-opacity:0.7;}.cls-17{mask:url(#mask-7);}.cls-18{mask:url(#mask-8);}.cls-19{fill:#ff4f6d;}.cls-20{fill-opacity:0.6;}.cls-21{mask:url(#mask-9);}.cls-22{fill:#1f3140;}.cls-23{mask:url(#mask-10);}.cls-24{fill:#2c1b18;}</style><mask id="mask" x="12.39" y="2" width="292.09" height="309.8" maskUnits="userSpaceOnUse"><g id="mask-4"><path id="path-3" class="cls-1" d="M25.67,179a132.77,132.77,0,1,0,265.54,0h13.28V2H12.39V179Z"/></g></mask><mask id="mask-2" x="12.39" y="41.83" width="292.09" height="269.96" maskUnits="userSpaceOnUse"><g id="mask-6"><path id="path-5" class="cls-1" d="M185,201.83v20.35h4.43a79.65,79.65,0,0,1,79.66,79.66v10H47.8v-10a79.66,79.66,0,0,1,79.66-79.66h4.43V201.83a62,62,0,0,1-35.07-49.49,13.27,13.27,0,0,1-11.4-13.15V123.71a13.29,13.29,0,0,1,11.06-13.1v-6.82h0a62,62,0,0,1,62-62h0a62,62,0,0,1,62,62v6.82a13.29,13.29,0,0,1,11.06,13.1v15.48a13.27,13.27,0,0,1-11.4,13.15A62,62,0,0,1,185,201.83Z"/></g></mask><mask id="mask-3" x="47.8" y="41.83" width="221.28" height="269.96" maskUnits="userSpaceOnUse"><g id="mask-6-2" data-name="mask-6"><path id="path-5-2" data-name="path-5" class="cls-1" d="M185,201.83v20.35h4.43a79.65,79.65,0,0,1,79.66,79.66v10H47.8v-10a79.66,79.66,0,0,1,79.66-79.66h4.43V201.83a62,62,0,0,1-35.07-49.49,13.27,13.27,0,0,1-11.4-13.15V123.71a13.29,13.29,0,0,1,11.06-13.1v-6.82h0a62,62,0,0,1,62-62h0a62,62,0,0,1,62,62v6.82a13.29,13.29,0,0,1,11.06,13.1v15.48a13.27,13.27,0,0,1-11.4,13.15A62,62,0,0,1,185,201.83Z"/></g></mask><mask id="mask-4-2" x="12.39" y="190.09" width="292.09" height="121.71" maskUnits="userSpaceOnUse"><g id="react-mask-2"><path id="react-path-1" class="cls-1" d="M131.89,204.55c-19.83,2.22-35.1,8.28-35.4,23.87A79.7,79.7,0,0,0,47.8,301.84h0v10H269.08v-10a79.7,79.7,0,0,0-48.68-73.42c-.31-15.59-15.58-21.65-35.41-23.87V225.5h0a26.55,26.55,0,0,1-26.55,26.55h0a26.55,26.55,0,0,1-26.55-26.55Z"/></g></mask><mask id="mask-5" x="47.8" y="204.55" width="221.28" height="107.24" maskUnits="userSpaceOnUse"><g id="react-mask-2-2" data-name="react-mask-2"><path id="react-path-1-2" data-name="react-path-1" class="cls-1" d="M131.89,204.55c-19.83,2.22-35.1,8.28-35.4,23.87A79.7,79.7,0,0,0,47.8,301.84h0v10H269.08v-10a79.7,79.7,0,0,0-48.68-73.42c-.31-15.59-15.58-21.65-35.41-23.87V225.5h0a26.55,26.55,0,0,1-26.55,26.55h0a26.55,26.55,0,0,1-26.55-26.55Z"/></g></mask><mask id="mask-6-3" x="47.8" y="204.17" width="221.28" height="107.63" maskUnits="userSpaceOnUse"><g id="react-mask-2-3" data-name="react-mask-2"><path id="react-path-1-3" data-name="react-path-1" class="cls-1" d="M131.89,204.55c-19.83,2.22-35.1,8.28-35.4,23.87A79.7,79.7,0,0,0,47.8,301.84h0v10H269.08v-10a79.7,79.7,0,0,0-48.68-73.42c-.31-15.59-15.58-21.65-35.41-23.87V225.5h0a26.55,26.55,0,0,1-26.55,26.55h0a26.55,26.55,0,0,1-26.55-26.55Z"/></g></mask><mask id="mask-7" x="137.54" y="152.47" width="41.81" height="33.19" maskUnits="userSpaceOnUse"><g id="react-mask-4"><path id="react-path-3" class="cls-1" d="M137.55,167a21,21,0,0,0,41.79-.1,2.31,2.31,0,0,0-2-2.26H139.73A2.36,2.36,0,0,0,137.55,167Z"/></g></mask><mask id="mask-8" x="137.54" y="164.64" width="41.81" height="36.51" maskUnits="userSpaceOnUse"><g id="react-mask-4-2" data-name="react-mask-4"><path id="react-path-3-2" data-name="react-path-3" class="cls-1" d="M137.55,167a21,21,0,0,0,41.79-.1,2.31,2.31,0,0,0-2-2.26H139.73A2.36,2.36,0,0,0,137.55,167Z"/></g></mask><mask id="mask-9" x="12.39" y="2" width="292.09" height="309.8" maskUnits="userSpaceOnUse"><g id="react-mask-7"><rect id="react-path-9" class="cls-1" x="12.39" y="2" width="292.09" height="309.8"/></g></mask><mask id="mask-10" x="11.29" y="2" width="292.09" height="309.8" maskUnits="userSpaceOnUse"><g id="react-mask-6"><path id="react-path-8" class="cls-1" d="M210.61,46.17a95.22,95.22,0,0,0-10.05-8.43c-.76-.58-1.53-1.15-2.28-1.76a12.15,12.15,0,0,1-2.11-1.84c-.49-1.09-.21-.24-.14-1.55.09-1.66,3.47-6.34.95-7.41-1.11-.47-3.09.78-4.15,1.2-2.09.81-4.19,1.5-6.35,2.1,1-2.05,3-6.17-.69-5.07-2.88.86-5.56,3.07-8.46,4.1,1-1.57,4.79-6.43,1.33-6.7-1.08-.08-4.21,1.94-5.37,2.37A61.88,61.88,0,0,1,162.63,26c-12.39,2.23-26.87,1.59-38.34,7.23-8.83,4.35-17.56,11.1-22.67,19.69-4.92,8.28-6.76,17.35-7.79,26.84a135.77,135.77,0,0,0-.46,21.15c.12,2.29.37,12.85,3.7,9.65,1.66-1.59,1.65-8,2.06-10.2a100.79,100.79,0,0,1,3-12.88c2.44-7.39,5.32-15.26,11.4-20.35,3.9-3.27,6.64-7.68,10.38-11,1.67-1.48.39-1.33,3.09-1.14,1.81.13,3.63.18,5.45.23,4.2.11,8.41.08,12.61.1,8.46,0,16.88.15,25.33-.29,3.76-.2,7.52-.31,11.27-.66,2.09-.19,5.81-1.53,7.53-.51,1.57.94,3.21,4,4.34,5.26,2.68,3,5.87,5.22,9,7.65,6.53,5.07,9.82,11.43,11.8,19.35s1.42,15.21,3.86,23c.43,1.37,1.57,3.72,3,1.61.26-.39.19-2.54.19-3.78,0-5,1.27-8.75,1.25-13.79C222.55,77.82,222.06,57.86,210.61,46.17Z"/></g></mask></defs><title>crmn</title><g id="Avataaar"><g id="Avataaar_Circle" data-name="Avataaar/Circle"><g id="Circle"><g id="Circle-Background"><circle id="path-1" class="cls-2" cx="158.43" cy="158.43" r="153.43"/></g></g></g></g><g class="cls-3"><g id="Avataaar-2" data-name="Avataaar"><g id="Body"><path id="path-5-3" data-name="path-5" class="cls-4" d="M185,201.83v20.35h4.43a79.65,79.65,0,0,1,79.66,79.66v10H47.8v-10a79.66,79.66,0,0,1,79.66-79.66h4.43V201.83a62,62,0,0,1-35.07-49.49,13.27,13.27,0,0,1-11.4-13.15V123.71a13.29,13.29,0,0,1,11.06-13.1v-6.82h0a62,62,0,0,1,62-62h0a62,62,0,0,1,62,62v6.82a13.29,13.29,0,0,1,11.06,13.1v15.48a13.27,13.27,0,0,1-11.4,13.15A62,62,0,0,1,185,201.83Z"/><g class="cls-5"><g id="Skin_-03-Brown" data-name="Skin/-03-Brown"><g id="Color"><rect class="cls-6" x="12.39" y="41.83" width="292.09" height="269.96"/></g></g></g><g class="cls-7"><path id="Neck-Shadow" class="cls-8" d="M220.4,129.24v25.44a62,62,0,0,1-123.92,0v-8.85a62,62,0,0,0,123.92,0Z"/></g></g><g id="Clothing_Hoodie" data-name="Clothing/Hoodie"><g id="Hoodie"><path id="react-path-1-4" data-name="react-path-1" class="cls-9" d="M131.89,204.55c-19.83,2.22-35.1,8.28-35.4,23.87A79.7,79.7,0,0,0,47.8,301.84h0v10H269.08v-10a79.7,79.7,0,0,0-48.68-73.42c-.31-15.59-15.58-21.65-35.41-23.87V225.5h0a26.55,26.55,0,0,1-26.55,26.55h0a26.55,26.55,0,0,1-26.55-26.55Z"/></g><g class="cls-10"><g id="Color_Palette_Gray-01" data-name="Color/Palette/Gray-01"><rect id="_Color" data-name="Color" class="cls-11" x="12.39" y="190.09" width="292.09" height="121.71"/></g></g><g class="cls-12"><path id="Straps" class="cls-13" d="M125.25,258.4v53.4H117.5V254.43A70.45,70.45,0,0,0,125.25,258.4Zm74.13-4v44.64a3.88,3.88,0,0,1-7.75,0V258.4A70.45,70.45,0,0,0,199.38,254.43Z"/></g><g class="cls-14"><path id="Shadow" class="cls-15" d="M113,204.17c-16.65,3.15-28.17,9.42-28.17,21.67,0,21.81,36.56,39.49,73.58,39.49S232,247.65,232,225.84c0-12.25-11.52-18.52-28.17-21.67,10.05,3.7,16.55,9.94,16.55,20.3,0,22.57-30.78,40.86-62,40.86s-62-18.29-62-40.86C96.48,214.11,103,207.87,113,204.17Z"/></g></g><g id="Face"><g id="Mouth_Smile" data-name="Mouth/Smile"><g id="Mouth"><path id="react-path-3-3" data-name="react-path-3" class="cls-16" d="M137.55,167a21,21,0,0,0,41.79-.1,2.31,2.31,0,0,0-2-2.26H139.73A2.36,2.36,0,0,0,137.55,167Z"/></g><g class="cls-17"><rect id="Teeth" class="cls-1" x="141.84" y="152.47" width="34.3" height="17.7" rx="5.53" ry="5.53"/></g><g class="cls-18"><g id="Tongue"><circle class="cls-19" cx="152.91" cy="188.98" r="12.17"/><circle class="cls-19" cx="163.97" cy="188.98" r="12.17"/></g></g></g><g id="Nose_Default" data-name="Nose/Default"><path id="Nose" class="cls-15" d="M145.16,145.83c0,4.89,6,8.85,13.28,8.85h0c7.33,0,13.28-4,13.28-8.85"/></g><g id="Eyes_Default-_" data-name="Eyes/Default-"><circle id="Eye" class="cls-20" cx="129.67" cy="125.92" r="6.64"/><circle id="Eye-2" data-name="Eye" class="cls-20" cx="187.21" cy="125.92" r="6.64"/></g><g id="Eyebrow_Outline_Default" data-name="Eyebrow/Outline/Default"><g id="I-Browse"><path id="Eyebrow" class="cls-20" d="M113.78,111.71c4.33-6.09,16.2-9.51,26.43-7a2.21,2.21,0,0,0,1.06-4.3c-11.88-2.92-25.63,1-31.1,8.74a2.21,2.21,0,0,0,3.61,2.56Z"/><path id="Eyebrow-2" data-name="Eyebrow" class="cls-20" d="M203.11,111.71c-4.33-6.09-16.21-9.51-26.44-7a2.21,2.21,0,1,1-1-4.3c11.87-2.92,25.63,1,31.09,8.74a2.21,2.21,0,1,1-3.6,2.56Z"/></g></g></g><g id="Top"><g class="cls-21"><g id="Top_Short-Hair_Short-Flat" data-name="Top/Short-Hair/Short-Flat"><g id="Short-Hair"><path id="react-path-8-2" data-name="react-path-8" class="cls-22" d="M210.61,46.17a95.22,95.22,0,0,0-10.05-8.43c-.76-.58-1.53-1.15-2.28-1.76a12.15,12.15,0,0,1-2.11-1.84c-.49-1.09-.21-.24-.14-1.55.09-1.66,3.47-6.34.95-7.41-1.11-.47-3.09.78-4.15,1.2-2.09.81-4.19,1.5-6.35,2.1,1-2.05,3-6.17-.69-5.07-2.88.86-5.56,3.07-8.46,4.1,1-1.57,4.79-6.43,1.33-6.7-1.08-.08-4.21,1.94-5.37,2.37A61.88,61.88,0,0,1,162.63,26c-12.39,2.23-26.87,1.59-38.34,7.23-8.83,4.35-17.56,11.1-22.67,19.69-4.92,8.28-6.76,17.35-7.79,26.84a135.77,135.77,0,0,0-.46,21.15c.12,2.29.37,12.85,3.7,9.65,1.66-1.59,1.65-8,2.06-10.2a100.79,100.79,0,0,1,3-12.88c2.44-7.39,5.32-15.26,11.4-20.35,3.9-3.27,6.64-7.68,10.38-11,1.67-1.48.39-1.33,3.09-1.14,1.81.13,3.63.18,5.45.23,4.2.11,8.41.08,12.61.1,8.46,0,16.88.15,25.33-.29,3.76-.2,7.52-.31,11.27-.66,2.09-.19,5.81-1.53,7.53-.51,1.57.94,3.21,4,4.34,5.26,2.68,3,5.87,5.22,9,7.65,6.53,5.07,9.82,11.43,11.8,19.35s1.42,15.21,3.86,23c.43,1.37,1.57,3.72,3,1.61.26-.39.19-2.54.19-3.78,0-5,1.27-8.75,1.25-13.79C222.55,77.82,222.06,57.86,210.61,46.17Z"/></g><g class="cls-23"><g id="Skin_-03-Brown-2" data-name="Skin/-03-Brown"><g id="Color-2" data-name="Color"><rect class="cls-24" x="11.29" y="2" width="292.09" height="309.8"/></g></g></g></g></g></g></g></g></svg>