<svg id="Frank" xmlns="http://www.w3.org/2000/svg" xmlns:xlink="http://www.w3.org/1999/xlink" viewBox="0 0 316.86 316.86"><defs><style>.cls-1{fill:#fff;}.cls-2{fill:#487185;stroke:#79b8d6;stroke-miterlimit:10;stroke-width:10px;}.cls-3{mask:url(#mask);}.cls-4{fill:#d0c6ac;}.cls-5{mask:url(#mask-2);}.cls-6{fill:#edb98a;}.cls-7{mask:url(#mask-3);}.cls-8{fill-opacity:0.1;}.cls-9{fill:#e6e6e6;}.cls-10{mask:url(#mask-4-2);}.cls-11{fill:#262e33;}.cls-12{mask:url(#mask-5);}.cls-13{opacity:0.6;}.cls-14{fill-opacity:0.16;}.cls-15{fill:#3a4c5a;}.cls-16{fill:#2f4351;}.cls-17{fill-opacity:0.7;}.cls-18{mask:url(#mask-6-3);}.cls-19{mask:url(#mask-7);}.cls-20{fill:#ff4f6d;}.cls-21{fill-opacity:0.6;}.cls-22{mask:url(#mask-8);}.cls-23{fill:#724133;}.cls-24{fill:#1f3140;}.cls-25{mask:url(#mask-9);}</style><mask id="mask" x="11.85" y="6" width="289.06" height="306.58" maskUnits="userSpaceOnUse"><g id="mask-4"><path id="path-3" class="cls-1" d="M25,181.19a131.39,131.39,0,0,0,262.78,0h13.14V6H11.85V181.19Z"/></g></mask><mask id="mask-2" x="11.85" y="45.42" width="289.06" height="267.16" maskUnits="userSpaceOnUse"><g id="mask-6"><path id="path-5" class="cls-1" d="M182.66,203.76v20.13H187a78.83,78.83,0,0,1,78.83,78.84v9.85h-219v-9.85a78.84,78.84,0,0,1,78.84-78.84h4.38V203.76a61.36,61.36,0,0,1-34.7-49,13.14,13.14,0,0,1-11.29-13V126.44a13.14,13.14,0,0,1,11-13v-6.76h0a61.31,61.31,0,0,1,61.32-61.31h0a61.31,61.31,0,0,1,61.31,61.31v6.76a13.13,13.13,0,0,1,10.95,13v15.33a13.13,13.13,0,0,1-11.28,13A61.36,61.36,0,0,1,182.66,203.76Z"/></g></mask><mask id="mask-3" x="46.88" y="45.42" width="218.99" height="267.16" maskUnits="userSpaceOnUse"><g id="mask-6-2" data-name="mask-6"><path id="path-5-2" data-name="path-5" class="cls-1" d="M182.66,203.76v20.13H187a78.83,78.83,0,0,1,78.83,78.84v9.85h-219v-9.85a78.84,78.84,0,0,1,78.84-78.84h4.38V203.76a61.36,61.36,0,0,1-34.7-49,13.14,13.14,0,0,1-11.29-13V126.44a13.14,13.14,0,0,1,11-13v-6.76h0a61.31,61.31,0,0,1,61.32-61.31h0a61.31,61.31,0,0,1,61.31,61.31v6.76a13.13,13.13,0,0,1,10.95,13v15.33a13.13,13.13,0,0,1-11.28,13A61.36,61.36,0,0,1,182.66,203.76Z"/></g></mask><mask id="mask-4-2" x="11.85" y="192.14" width="289.06" height="120.44" maskUnits="userSpaceOnUse"><g id="react-mask-2"><path id="react-path-1" class="cls-1" d="M193.56,224.22a78.83,78.83,0,0,1,72.31,78.56v9.8h-219v-9.8a78.85,78.85,0,0,1,73.41-78.65c0,.41,0,.82,0,1.24,0,13,16.42,23.52,36.68,23.52s36.68-10.53,36.68-23.52C193.61,225,193.59,224.6,193.56,224.22Z"/></g></mask><mask id="mask-5" x="46.88" y="197.54" width="218.99" height="115.04" maskUnits="userSpaceOnUse"><g id="react-mask-2-2" data-name="react-mask-2"><path id="react-path-1-2" data-name="react-path-1" class="cls-1" d="M193.56,224.22a78.83,78.83,0,0,1,72.31,78.56v9.8h-219v-9.8a78.85,78.85,0,0,1,73.41-78.65c0,.41,0,.82,0,1.24,0,13,16.42,23.52,36.68,23.52s36.68-10.53,36.68-23.52C193.61,225,193.59,224.6,193.56,224.22Z"/></g></mask><mask id="mask-6-3" x="135.69" y="154.91" width="41.37" height="32.85" maskUnits="userSpaceOnUse"><g id="react-mask-4"><path id="react-path-3" class="cls-1" d="M135.7,169.29a20.81,20.81,0,0,0,41.36-.1,2.29,2.29,0,0,0-2-2.23H137.86A2.34,2.34,0,0,0,135.7,169.29Z"/></g></mask><mask id="mask-7" x="135.69" y="166.96" width="41.37" height="36.13" maskUnits="userSpaceOnUse"><g id="react-mask-4-2" data-name="react-mask-4"><path id="react-path-3-2" data-name="react-path-3" class="cls-1" d="M135.7,169.29a20.81,20.81,0,0,0,41.36-.1,2.29,2.29,0,0,0-2-2.23H137.86A2.34,2.34,0,0,0,135.7,169.29Z"/></g></mask><mask id="mask-8" x="11.85" y="6" width="289.06" height="306.58" maskUnits="userSpaceOnUse"><g id="react-mask-7"><rect id="react-path-9" class="cls-1" x="11.85" y="6" width="289.06" height="306.58"/></g></mask><mask id="mask-9" x="10.75" y="6" width="289.06" height="306.58" maskUnits="userSpaceOnUse"><g id="react-mask-6"><path id="react-path-8" class="cls-1" d="M208,49.71a93.17,93.17,0,0,0-9.94-8.34c-.75-.58-1.52-1.14-2.25-1.74a12.33,12.33,0,0,1-2.09-1.82c-.49-1.09-.21-.24-.14-1.54.09-1.64,3.43-6.27.94-7.33-1.1-.47-3.06.77-4.11,1.18a66,66,0,0,1-6.28,2.09c1-2,3-6.11-.69-5-2.85.85-5.5,3-8.37,4.06,1-1.55,4.74-6.36,1.32-6.63-1.07-.09-4.17,1.91-5.31,2.34a62,62,0,0,1-10.55,2.75c-12.26,2.21-26.6,1.58-37.95,7.16-8.74,4.3-17.38,11-22.43,19.48-4.87,8.2-6.69,17.17-7.71,26.56A133,133,0,0,0,92,103.84c.12,2.27.37,12.72,3.66,9.55,1.64-1.57,1.63-7.94,2-10.09a100.82,100.82,0,0,1,3-12.75c2.42-7.31,5.27-15.1,11.28-20.14,3.86-3.23,6.58-7.59,10.27-10.86,1.66-1.46.4-1.31,3.06-1.12,1.8.13,3.6.18,5.4.23,4.15.11,8.32.08,12.47.1,8.38,0,16.71.14,25.07-.29,3.72-.2,7.45-.3,11.16-.65,2.07-.19,5.74-1.52,7.45-.5,1.56.92,3.18,4,4.3,5.2A65.49,65.49,0,0,0,200,70.09c6.46,5,9.72,11.31,11.68,19.15s1.4,15.05,3.82,22.73c.42,1.35,1.55,3.68,2.94,1.6a15.7,15.7,0,0,0,.19-3.75c0-4.95,1.25-8.66,1.23-13.64C219.82,81,219.33,61.28,208,49.71Z"/></g></mask></defs><title>frank</title><g id="Avataaar"><g id="Avataaar_Circle" data-name="Avataaar/Circle"><g id="Circle"><g id="Circle-Background"><circle id="path-1" class="cls-2" cx="158.43" cy="158.43" r="153.43"/></g></g></g></g><g class="cls-3"><g id="Avataaar-2" data-name="Avataaar"><g id="Body"><path id="path-5-3" data-name="path-5" class="cls-4" d="M182.66,203.76v20.13H187a78.83,78.83,0,0,1,78.83,78.84v9.85h-219v-9.85a78.84,78.84,0,0,1,78.84-78.84h4.38V203.76a61.36,61.36,0,0,1-34.7-49,13.14,13.14,0,0,1-11.29-13V126.44a13.14,13.14,0,0,1,11-13v-6.76h0a61.31,61.31,0,0,1,61.32-61.31h0a61.31,61.31,0,0,1,61.31,61.31v6.76a13.13,13.13,0,0,1,10.95,13v15.33a13.13,13.13,0,0,1-11.28,13A61.36,61.36,0,0,1,182.66,203.76Z"/><g class="cls-5"><g id="Skin_-03-Brown" data-name="Skin/-03-Brown"><g id="Color"><rect class="cls-6" x="11.85" y="45.42" width="289.06" height="267.16"/></g></g></g><g class="cls-7"><path id="Neck-Shadow" class="cls-8" d="M217.69,131.92V157.1a61.32,61.32,0,1,1-122.63,0v-8.76a61.32,61.32,0,1,0,122.63,0Z"/></g></g><g id="Clothing_Blazer-_-Shirt" data-name="Clothing/Blazer-+-Shirt"><g id="Shirt"><g id="Clothes"><path id="react-path-1-3" data-name="react-path-1" class="cls-9" d="M193.56,224.22a78.83,78.83,0,0,1,72.31,78.56v9.8h-219v-9.8a78.85,78.85,0,0,1,73.41-78.65c0,.41,0,.82,0,1.24,0,13,16.42,23.52,36.68,23.52s36.68-10.53,36.68-23.52C193.61,225,193.59,224.6,193.56,224.22Z"/></g><g class="cls-10"><g id="Color_Palette_Black" data-name="Color/Palette/Black"><g id="_Color" data-name="Color"><rect class="cls-11" x="11.85" y="192.14" width="289.06" height="120.44"/></g></g></g><g class="cls-12"><g id="Shadowy" class="cls-13"><g id="Hola-_" data-name="Hola-"><ellipse class="cls-14" cx="156.93" cy="227.01" rx="43.4" ry="29.47"/></g></g></g></g><g id="Blazer"><path id="Saco" class="cls-15" d="M122.2,224a78.83,78.83,0,0,0-75.32,78.75h0v9.8h75.95A169.82,169.82,0,0,1,117,267.14,171.93,171.93,0,0,1,122.2,224ZM191,312.58h74.85v-9.8a78.84,78.84,0,0,0-74.2-78.7,172.08,172.08,0,0,1,5.22,43.06A169.82,169.82,0,0,1,191,312.58Z"/><path id="Pocket-hanky" class="cls-9" d="M210,286.3l10.46-7.84h0a4.38,4.38,0,0,1,5.32,0l7.21,5.61Z"/><path id="Wing" class="cls-16" d="M122.43,222.8q-6.56,31.75,5.48,89.78H110.39L95.06,273.16l6.57-9.85-6.57-6.57,20.81-32.85A23.52,23.52,0,0,1,122.43,222.8Z"/><path id="Wing-2" data-name="Wing" class="cls-16" d="M190.32,222.8q6.57,31.75-5.47,89.78h17.52l15.32-39.42-6.57-9.85,6.57-6.57-20.8-32.85A23.52,23.52,0,0,0,190.32,222.8Z"/></g></g><g id="Face"><g id="Mouth_Smile" data-name="Mouth/Smile"><g id="Mouth"><path id="react-path-3-3" data-name="react-path-3" class="cls-17" d="M135.7,169.29a20.81,20.81,0,0,0,41.36-.1,2.29,2.29,0,0,0-2-2.23H137.86A2.34,2.34,0,0,0,135.7,169.29Z"/></g><g class="cls-18"><rect id="Teeth" class="cls-1" x="139.95" y="154.91" width="33.94" height="17.52" rx="5.47" ry="5.47"/></g><g class="cls-19"><g id="Tongue"><circle class="cls-20" cx="150.9" cy="191.04" r="12.04"/><circle class="cls-20" cx="161.85" cy="191.04" r="12.04"/></g></g></g><g id="Nose_Default" data-name="Nose/Default"><path id="Nose" class="cls-14" d="M143.24,148.34c0,4.84,5.88,8.76,13.14,8.76h0c7.25,0,13.14-3.92,13.14-8.76"/></g><g id="Eyes_Default-_" data-name="Eyes/Default-"><circle id="Eye" class="cls-21" cx="127.91" cy="128.63" r="6.57"/><circle id="Eye-2" data-name="Eye" class="cls-21" cx="184.85" cy="128.63" r="6.57"/></g><g id="Eyebrow_Outline_Default" data-name="Eyebrow/Outline/Default"><g id="I-Browse"><path id="Eyebrow" class="cls-21" d="M112.18,114.57c4.28-6,16-9.41,26.16-6.93a2.19,2.19,0,1,0,1-4.25c-11.75-2.89-25.36,1-30.77,8.65a2.19,2.19,0,1,0,3.57,2.53Z"/><path id="Eyebrow-2" data-name="Eyebrow" class="cls-21" d="M200.58,114.57c-4.29-6-16-9.41-26.16-6.93a2.19,2.19,0,1,1-1-4.25c11.75-2.89,25.36,1,30.77,8.65a2.19,2.19,0,0,1-3.57,2.53Z"/></g></g></g><g class="cls-22"><g id="Top_Short-Hair_Short-Flat" data-name="Top/Short-Hair/Short-Flat"><g id="Facial-Hair_Beard-Light" data-name="Facial-Hair/Beard-Light"><g id="Lite-Beard"><path id="react-path-11" class="cls-23" d="M175.46,192.32c-2.75,2.52-5.68,3.65-9.39,2.86-.64-.14-3.24-5-9.69-5s-9.06,4.83-9.7,5c-3.7.79-6.63-.34-9.39-2.86-5.17-4.72-9.47-11.23-6.89-18.34,1.35-3.7,3.54-7.76,7.53-8.94,4.26-1.26,10.23,0,14.52-.87a9.48,9.48,0,0,0,3.93-1.59,9.44,9.44,0,0,0,3.92,1.59c4.29.86,10.27-.39,14.53.87,4,1.18,6.17,5.24,7.52,8.94,2.59,7.11-1.72,13.62-6.89,18.34m42.32-79c-3.73,9.2-2.29,20.65-3,30.31-.56,7.84-2.21,19.61-9.18,24.68-3.56,2.59-10.05,6.94-14.71,5.73-3.2-.84-3.54-10-7.76-13.47a24.52,24.52,0,0,0-16.75-5.36c-2.6.12-7.85.09-10,2.09-2.17-2-7.42-2-10-2.09a24.54,24.54,0,0,0-16.76,5.36c-4.21,3.44-4.55,12.63-7.76,13.47-4.65,1.21-11.14-3.14-14.7-5.73-7-5.07-8.62-16.84-9.18-24.68-.7-9.66.75-21.11-3-30.31-1.81,0-.62,17.66-.62,17.66v22.29c0,16.74,10.49,41.8,33.68,51.36,5.67,2.34,18.51,6.14,28.35,6.14s22.68-3.43,28.35-5.77c23.18-9.57,33.64-35,33.67-51.73V131s1.2-17.66-.62-17.66"/></g></g><g id="Short-Hair"><path id="react-path-8-2" data-name="react-path-8" class="cls-24" d="M208,49.71a93.17,93.17,0,0,0-9.94-8.34c-.75-.58-1.52-1.14-2.25-1.74a12.33,12.33,0,0,1-2.09-1.82c-.49-1.09-.21-.24-.14-1.54.09-1.64,3.43-6.27.94-7.33-1.1-.47-3.06.77-4.11,1.18a66,66,0,0,1-6.28,2.09c1-2,3-6.11-.69-5-2.85.85-5.5,3-8.37,4.06,1-1.55,4.74-6.36,1.32-6.63-1.07-.09-4.17,1.91-5.31,2.34a62,62,0,0,1-10.55,2.75c-12.26,2.21-26.6,1.58-37.95,7.16-8.74,4.3-17.38,11-22.43,19.48-4.87,8.2-6.69,17.17-7.71,26.56A133,133,0,0,0,92,103.84c.12,2.27.37,12.72,3.66,9.55,1.64-1.57,1.63-7.94,2-10.09a100.82,100.82,0,0,1,3-12.75c2.42-7.31,5.27-15.1,11.28-20.14,3.86-3.23,6.58-7.59,10.27-10.86,1.66-1.46.4-1.31,3.06-1.12,1.8.13,3.6.18,5.4.23,4.15.11,8.32.08,12.47.1,8.38,0,16.71.14,25.07-.29,3.72-.2,7.45-.3,11.16-.65,2.07-.19,5.74-1.52,7.45-.5,1.56.92,3.18,4,4.3,5.2A65.49,65.49,0,0,0,200,70.09c6.46,5,9.72,11.31,11.68,19.15s1.4,15.05,3.82,22.73c.42,1.35,1.55,3.68,2.94,1.6a15.7,15.7,0,0,0,.19-3.75c0-4.95,1.25-8.66,1.23-13.64C219.82,81,219.33,61.28,208,49.71Z"/></g><g class="cls-25"><g id="Skin_-03-Brown-2" data-name="Skin/-03-Brown"><g id="Color-2" data-name="Color"><rect class="cls-23" x="10.75" y="6" width="289.06" height="306.58"/></g></g></g></g></g></g></g></svg>