<svg id="HotShot" xmlns="http://www.w3.org/2000/svg" xmlns:xlink="http://www.w3.org/1999/xlink" viewBox="0 0 316.86 316.86"><defs><style>.cls-1{fill:#fff;}.cls-2{fill:#487185;stroke:#79b8d6;stroke-miterlimit:10;stroke-width:10px;}.cls-3{mask:url(#mask);}.cls-4{fill:#d0c6ac;}.cls-5{mask:url(#mask-2);}.cls-6{fill:#edb98a;}.cls-7{mask:url(#mask-3);}.cls-8{fill-opacity:0.1;}.cls-9{fill:#b7c1db;}.cls-10{mask:url(#mask-4-2);}.cls-11{fill:#3c4f5c;}.cls-12{mask:url(#mask-5);}.cls-13{fill:#f4f4f4;}.cls-14{mask:url(#mask-6-3);}.cls-15{fill-opacity:0.16;}.cls-16{fill-opacity:0.7;}.cls-17{fill-opacity:0.6;}.cls-18{mask:url(#mask-7);}.cls-19{fill:#4a312c;}.cls-20{fill:#28354b;}.cls-21{mask:url(#mask-8);}.cls-22{fill:#252c2f;}</style><mask id="mask" x="17.33" y="9.27" width="281.48" height="298.54" maskUnits="userSpaceOnUse"><g id="mask-4"><path id="path-3" class="cls-1" d="M30.13,179.86a127.95,127.95,0,1,0,255.89,0h12.8V9.27H17.33V179.86Z"/></g></mask><mask id="mask-2" x="17.33" y="47.65" width="281.48" height="260.16" maskUnits="userSpaceOnUse"><g id="mask-6"><path id="path-5" class="cls-1" d="M183.66,201.84v19.61h4.27a76.77,76.77,0,0,1,76.77,76.76v9.6H51.45v-9.6a76.77,76.77,0,0,1,76.77-76.76h4.27V201.84a59.76,59.76,0,0,1-33.8-47.69,12.81,12.81,0,0,1-11-12.67V126.55a12.78,12.78,0,0,1,10.67-12.61v-6.58h0a59.7,59.7,0,0,1,59.7-59.71h0a59.71,59.71,0,0,1,59.71,59.71v6.58a12.79,12.79,0,0,1,10.67,12.61v14.93a12.81,12.81,0,0,1-11,12.67A59.76,59.76,0,0,1,183.66,201.84Z"/></g></mask><mask id="mask-3" x="51.45" y="47.65" width="213.24" height="260.16" maskUnits="userSpaceOnUse"><g id="mask-6-2" data-name="mask-6"><path id="path-5-2" data-name="path-5" class="cls-1" d="M183.66,201.84v19.61h4.27a76.77,76.77,0,0,1,76.77,76.76v9.6H51.45v-9.6a76.77,76.77,0,0,1,76.77-76.76h4.27V201.84a59.76,59.76,0,0,1-33.8-47.69,12.81,12.81,0,0,1-11-12.67V126.55a12.78,12.78,0,0,1,10.67-12.61v-6.58h0a59.7,59.7,0,0,1,59.7-59.71h0a59.71,59.71,0,0,1,59.71,59.71v6.58a12.79,12.79,0,0,1,10.67,12.61v14.93a12.81,12.81,0,0,1-11,12.67A59.76,59.76,0,0,1,183.66,201.84Z"/></g></mask><mask id="mask-4-2" x="17.33" y="190.53" width="281.48" height="117.28" maskUnits="userSpaceOnUse"><g id="react-mask-2"><path id="react-path-1" class="cls-1" d="M132.49,204.46c-19.11,2.14-33.83,8-34.12,23a76.77,76.77,0,0,0-46.92,70.74h0v9.6H264.7v-9.6a76.77,76.77,0,0,0-46.92-70.74c-.3-15-15-20.87-34.12-23v20.19h0a25.58,25.58,0,0,1-25.59,25.58h0a25.58,25.58,0,0,1-25.58-25.58Z"/></g></mask><mask id="mask-5" x="51.45" y="204.46" width="213.24" height="103.35" maskUnits="userSpaceOnUse"><g id="react-mask-2-2" data-name="react-mask-2"><path id="react-path-1-2" data-name="react-path-1" class="cls-1" d="M132.49,204.46c-19.11,2.14-33.83,8-34.12,23a76.77,76.77,0,0,0-46.92,70.74h0v9.6H264.7v-9.6a76.77,76.77,0,0,0-46.92-70.74c-.3-15-15-20.87-34.12-23v20.19h0a25.58,25.58,0,0,1-25.59,25.58h0a25.58,25.58,0,0,1-25.58-25.58Z"/></g></mask><mask id="mask-6-3" x="51.45" y="204.09" width="213.24" height="103.72" maskUnits="userSpaceOnUse"><g id="react-mask-2-3" data-name="react-mask-2"><path id="react-path-1-3" data-name="react-path-1" class="cls-1" d="M132.49,204.46c-19.11,2.14-33.83,8-34.12,23a76.77,76.77,0,0,0-46.92,70.74h0v9.6H264.7v-9.6a76.77,76.77,0,0,0-46.92-70.74c-.3-15-15-20.87-34.12-23v20.19h0a25.58,25.58,0,0,1-25.59,25.58h0a25.58,25.58,0,0,1-25.58-25.58Z"/></g></mask><mask id="mask-7" x="17.33" y="9.27" width="281.48" height="298.54" maskUnits="userSpaceOnUse"><g id="react-mask-5"><rect id="react-path-7" class="cls-1" x="17.33" y="9.27" width="281.48" height="298.54"/></g></mask><mask id="mask-8" x="16.27" y="9.27" width="281.48" height="298.54" maskUnits="userSpaceOnUse"><g id="react-mask-4"><path id="react-path-6" class="cls-1" d="M212.11,50.8c5.77-5.28,7.15-16,3.88-22.93-4-8.52-12.17-9.59-20-5.84-7.36,3.53-13.92,4.71-22,3-7.73-1.64-15.08-4.54-23.08-5a43.32,43.32,0,0,0-34.86,13.92,37.88,37.88,0,0,0-4.39,6.19,20,20,0,0,0-2.66,5.6c-.21,1,.18,3.31-.29,4.09s-2.45,1.61-3.27,2.24A27.15,27.15,0,0,0,101,56.36a31.13,31.13,0,0,0-5.72,11.28c-4.38,14.12-4.75,30.92.91,44.78.75,1.85,3.09,5.71,4.46,1.75.27-.78-.36-3.41-.35-4.2,0-2.9,1.6-22.1,8.58-32.85,2.27-3.51,12.76-16.62,14.91-16.72,1.13,1.8,12.66,13.33,42.58,12,13.5-.61,23.89-6.67,26.38-9.3,1.1,5.9,13.85,14.73,15.8,18.36,5.61,10.5,6.86,32.31,9,32.27s3.68-5.58,4.12-6.64c3.28-7.86,3.84-17.73,3.49-26.19C224.7,70,220.21,58.25,212.11,50.8Z"/></g></mask></defs><title>hotshot</title><g id="Avataaar"><g id="Avataaar_Circle" data-name="Avataaar/Circle"><g id="Circle"><g id="Circle-Background"><circle id="path-1" class="cls-2" cx="158.43" cy="158.43" r="153.43"/></g></g></g></g><g class="cls-3"><g id="Avataaar-2" data-name="Avataaar"><g id="Body"><path id="path-5-3" data-name="path-5" class="cls-4" d="M183.66,201.84v19.61h4.27a76.77,76.77,0,0,1,76.77,76.76v9.6H51.45v-9.6a76.77,76.77,0,0,1,76.77-76.76h4.27V201.84a59.76,59.76,0,0,1-33.8-47.69,12.81,12.81,0,0,1-11-12.67V126.55a12.78,12.78,0,0,1,10.67-12.61v-6.58h0a59.7,59.7,0,0,1,59.7-59.71h0a59.71,59.71,0,0,1,59.71,59.71v6.58a12.79,12.79,0,0,1,10.67,12.61v14.93a12.81,12.81,0,0,1-11,12.67A59.76,59.76,0,0,1,183.66,201.84Z"/><g class="cls-5"><g id="Skin_-03-Brown" data-name="Skin/-03-Brown"><g id="Color"><rect class="cls-6" x="17.33" y="47.65" width="281.48" height="260.16"/></g></g></g><g class="cls-7"><path id="Neck-Shadow" class="cls-8" d="M217.78,131.88v24.53a59.71,59.71,0,1,1-119.41,0v-8.53a59.71,59.71,0,1,0,119.41,0Z"/></g></g><g id="Clothing_Hoodie" data-name="Clothing/Hoodie"><g id="Hoodie"><path id="react-path-1-4" data-name="react-path-1" class="cls-9" d="M132.49,204.46c-19.11,2.14-33.83,8-34.12,23a76.77,76.77,0,0,0-46.92,70.74h0v9.6H264.7v-9.6a76.77,76.77,0,0,0-46.92-70.74c-.3-15-15-20.87-34.12-23v20.19h0a25.58,25.58,0,0,1-25.59,25.58h0a25.58,25.58,0,0,1-25.58-25.58Z"/></g><g class="cls-10"><g id="Color_Palette_Gray-01" data-name="Color/Palette/Gray-01"><rect id="_Color" data-name="Color" class="cls-11" x="17.33" y="190.53" width="281.48" height="117.28"/></g></g><g class="cls-12"><path id="Straps" class="cls-13" d="M126.09,256.35v51.46h-7.47V252.53A69.76,69.76,0,0,0,126.09,256.35Zm71.44-3.82v43a3.74,3.74,0,0,1-7.47,0v-39.2A69.76,69.76,0,0,0,197.53,252.53Z"/></g><g class="cls-14"><path id="Shadow" class="cls-15" d="M114.32,204.09c-16,3-27.15,9.09-27.15,20.88,0,21,35.23,38.06,70.9,38.06S229,246,229,225c0-11.79-11.1-17.84-27.15-20.88,9.69,3.58,15.95,9.58,15.95,19.57,0,21.74-29.66,39.37-59.71,39.37s-59.7-17.63-59.7-39.37C98.37,213.67,104.63,207.67,114.32,204.09Z"/></g></g><g id="Face"><g id="Mouth_Default" data-name="Mouth/Default"><path id="Mouth" class="cls-16" d="M143.15,168.14a14.92,14.92,0,0,0,14.92,14.92h0A14.92,14.92,0,0,0,173,168.14"/></g><g id="Nose_Default" data-name="Nose/Default"><path id="Nose" class="cls-15" d="M145.28,147.88c0,4.71,5.73,8.53,12.79,8.53h0c7.07,0,12.8-3.82,12.8-8.53"/></g><g id="Eyes_Default-_" data-name="Eyes/Default-"><circle id="Eye" class="cls-17" cx="130.35" cy="128.69" r="6.4"/><circle id="Eye-2" data-name="Eye" class="cls-17" cx="185.8" cy="128.69" r="6.4"/></g><g id="Eyebrow_Outline_Default" data-name="Eyebrow/Outline/Default"><g id="I-Browse"><path id="Eyebrow" class="cls-17" d="M115,115c4.18-5.87,15.62-9.16,25.48-6.74a2.13,2.13,0,1,0,1-4.14c-11.44-2.82-24.7,1-30,8.41A2.13,2.13,0,1,0,115,115Z"/><path id="Eyebrow-2" data-name="Eyebrow" class="cls-17" d="M201.12,115c-4.18-5.87-15.62-9.16-25.48-6.74a2.13,2.13,0,1,1-1-4.14c11.44-2.82,24.7,1,30,8.41a2.13,2.13,0,1,1-3.47,2.47Z"/></g></g></g><g id="Top"><g class="cls-18"><g id="Top_Short-Hair_Short-Waved" data-name="Top/Short-Hair/Short-Waved"><g id="Lite-Beard"><path id="react-path-9" class="cls-19" d="M176.66,190.71c-2.68,2.44-5.54,3.54-9.15,2.77-.62-.13-3.15-4.84-9.44-4.84s-8.81,4.71-9.43,4.84c-3.61.77-6.47-.33-9.15-2.77-5-4.6-9.23-10.94-6.71-17.86,1.31-3.61,3.45-7.57,7.33-8.72,4.14-1.22,10,0,14.14-.84a9.1,9.1,0,0,0,3.82-1.55,9.2,9.2,0,0,0,3.83,1.55c4.17.84,10-.38,14.14.84,3.88,1.15,6,5.11,7.33,8.72,2.52,6.92-1.67,13.26-6.71,17.86m41.21-76.95c-3.64,8.95-2.23,20.11-2.91,29.51-.54,7.64-2.15,19.09-8.93,24-3.47,2.52-9.79,6.76-14.32,5.58-3.13-.81-3.46-9.77-7.56-13.12a23.89,23.89,0,0,0-16.32-5.21c-2.53.11-7.64.08-9.76,2-2.11-2-7.22-1.92-9.75-2A23.89,23.89,0,0,0,132,159.76c-4.1,3.35-4.43,12.31-7.56,13.12-4.53,1.18-10.85-3.06-14.32-5.58-6.78-4.94-8.39-16.39-8.94-24-.67-9.4.74-20.56-2.9-29.51-1.77,0-.6,17.2-.6,17.2v21.7c0,16.3,10.21,40.7,32.79,50,5.52,2.28,18,6,27.6,6s22.09-3.35,27.61-5.62c22.58-9.32,32.76-34.07,32.79-50.37V131s1.17-17.2-.6-17.2"/></g><g id="Short-Hair"><path id="react-path-6-2" data-name="react-path-6" class="cls-20" d="M212.11,50.8c5.77-5.28,7.15-16,3.88-22.93-4-8.52-12.17-9.59-20-5.84-7.36,3.53-13.92,4.71-22,3-7.73-1.64-15.08-4.54-23.08-5a43.32,43.32,0,0,0-34.86,13.92,37.88,37.88,0,0,0-4.39,6.19,20,20,0,0,0-2.66,5.6c-.21,1,.18,3.31-.29,4.09s-2.45,1.61-3.27,2.24A27.15,27.15,0,0,0,101,56.36a31.13,31.13,0,0,0-5.72,11.28c-4.38,14.12-4.75,30.92.91,44.78.75,1.85,3.09,5.71,4.46,1.75.27-.78-.36-3.41-.35-4.2,0-2.9,1.6-22.1,8.58-32.85,2.27-3.51,12.76-16.62,14.91-16.72,1.13,1.8,12.66,13.33,42.58,12,13.5-.61,23.89-6.67,26.38-9.3,1.1,5.9,13.85,14.73,15.8,18.36,5.61,10.5,6.86,32.31,9,32.27s3.68-5.58,4.12-6.64c3.28-7.86,3.84-17.73,3.49-26.19C224.7,70,220.21,58.25,212.11,50.8Z"/></g><g class="cls-21"><g id="Skin_-03-Brown-2" data-name="Skin/-03-Brown"><g id="Color-2" data-name="Color"><rect class="cls-19" x="16.27" y="9.27" width="281.48" height="298.54"/></g></g></g><g id="Top__Resources_Prescription-02" data-name="Top/_Resources/Prescription-02"><g id="Wayfarers"><path id="Left" class="cls-22" d="M125,151.08h-2.94c-14.85,0-23.71-8.18-23.71-21.86,0-11.06,1.93-21.86,25.08-21.86h3.14c23.15,0,25.09,10.8,25.09,21.86C151.68,142.09,140.72,151.08,125,151.08Zm-1.72-37.32c-20.67,0-20.67,7.29-20.67,16.53,0,7.53,3.32,16.52,19.16,16.52H125c13.19,0,22.39-6.79,22.39-16.52,0-9.24,0-16.53-20.67-16.53Z"/><path id="Right" class="cls-22" d="M191.13,151.08h-2.94c-14.85,0-23.72-8.18-23.72-21.86,0-11.06,1.94-21.86,25.09-21.86h3.14c23.15,0,25.08,10.8,25.08,21.86C217.78,142.09,206.82,151.08,191.13,151.08Zm-1.72-37.32c-20.67,0-20.67,7.29-20.67,16.53,0,7.53,3.32,16.52,19.16,16.52h3.23c13.18,0,22.39-6.79,22.39-16.52,0-9.24,0-16.53-20.67-16.53Z"/><path id="Stuff" class="cls-22" d="M91.92,113.51c.74-.72,8.8-6.15,31.5-6.15,19,0,23.07,2,29.16,5l.45.22a18,18,0,0,0,5.13,1,18,18,0,0,0,4.86-.93c7-3.38,13.78-5.22,29.71-5.22,22.7,0,30.76,5.43,31.5,6.15a3.12,3.12,0,0,1,3.15,3.08v3.08a3.12,3.12,0,0,1-3.15,3.08s-7.36,0-7.36,3.07-2.09-4.45-2.09-6.15v-3a56.26,56.26,0,0,0-22.05-4.21c-12.63,0-18.92,2.24-24.31,4.47l.06.14v2.12l-2.37,5.7-2.92-1.15a13.91,13.91,0,0,0-1.6-.48,14.84,14.84,0,0,0-6.39-.3,8.57,8.57,0,0,0-2,.68L150.37,125l-2.82-5.51.12-2.44.09-.21c-4.65-2.17-8.94-4.4-24.34-4.4a56.26,56.26,0,0,0-22,4.21v3c0,1.7-3.15,9.23-3.15,6.15s-6.3-3.07-6.3-3.07a3.12,3.12,0,0,1-3.15-3.08v-3.08A3.12,3.12,0,0,1,91.92,113.51Z"/></g></g></g></g></g></g></g></svg>