<svg id="MikeV" xmlns="http://www.w3.org/2000/svg" xmlns:xlink="http://www.w3.org/1999/xlink" viewBox="0 0 316.86 316.86"><defs><style>.cls-1{fill:#fff;}.cls-2{fill:#487185;stroke:#79b8d6;stroke-miterlimit:10;stroke-width:10px;}.cls-3{mask:url(#mask);}.cls-4{fill:#d0c6ac;}.cls-5{mask:url(#mask-2);}.cls-6{fill:#edb98a;}.cls-7{mask:url(#mask-3);}.cls-8{fill-opacity:0.1;}.cls-9{fill:#e6e6e6;}.cls-10{mask:url(#mask-4-2);}.cls-11{fill:#262e33;}.cls-12{mask:url(#mask-5);}.cls-13{opacity:0.6;}.cls-14{fill-opacity:0.16;}.cls-15{fill:#3a4c5a;}.cls-16{fill:#2f4351;}.cls-17{fill-opacity:0.7;}.cls-18{mask:url(#mask-6-3);}.cls-19{mask:url(#mask-7);}.cls-20{fill:#ff4f6d;}.cls-21{fill-opacity:0.6;}.cls-22{mask:url(#mask-8);}.cls-23{fill:#252e32;}.cls-24{mask:url(#mask-9);}.cls-25{fill:#4a312c;}</style><mask id="mask" x="14.95" y="6.54" width="287.48" height="304.9" maskUnits="userSpaceOnUse"><g id="mask-4"><path id="path-3" class="cls-1" d="M28,180.77a130.67,130.67,0,0,0,261.34,0h13.07V6.54H15V180.77Z"/></g></mask><mask id="mask-2" x="14.95" y="45.74" width="287.48" height="265.7" maskUnits="userSpaceOnUse"><g id="mask-6"><path id="path-5" class="cls-1" d="M184.82,203.21v20h4.36a78.4,78.4,0,0,1,78.4,78.4v9.8H49.8v-9.8a78.4,78.4,0,0,1,78.4-78.4h4.35v-20A61,61,0,0,1,98,154.5a13.06,13.06,0,0,1-11.22-12.94V126.32a13.07,13.07,0,0,1,10.89-12.89v-6.71h0a61,61,0,0,1,61-61h0a61,61,0,0,1,61,61v6.71a13.07,13.07,0,0,1,10.89,12.89v15.24a13.06,13.06,0,0,1-11.22,12.94A61,61,0,0,1,184.82,203.21Z"/></g></mask><mask id="mask-3" x="49.8" y="45.74" width="217.79" height="265.7" maskUnits="userSpaceOnUse"><g id="mask-6-2" data-name="mask-6"><path id="path-5-2" data-name="path-5" class="cls-1" d="M184.82,203.21v20h4.36a78.4,78.4,0,0,1,78.4,78.4v9.8H49.8v-9.8a78.4,78.4,0,0,1,78.4-78.4h4.35v-20A61,61,0,0,1,98,154.5a13.06,13.06,0,0,1-11.22-12.94V126.32a13.07,13.07,0,0,1,10.89-12.89v-6.71h0a61,61,0,0,1,61-61h0a61,61,0,0,1,61,61v6.71a13.07,13.07,0,0,1,10.89,12.89v15.24a13.06,13.06,0,0,1-11.22,12.94A61,61,0,0,1,184.82,203.21Z"/></g></mask><mask id="mask-4-2" x="14.95" y="191.66" width="287.48" height="119.78" maskUnits="userSpaceOnUse"><g id="react-mask-2"><path id="react-path-1" class="cls-1" d="M195.67,223.56a78.41,78.41,0,0,1,71.91,78.13v9.75H49.8v-9.75a78.42,78.42,0,0,1,73-78.22c0,.41,0,.82,0,1.23,0,12.92,16.34,23.39,36.48,23.39s36.48-10.47,36.48-23.39C195.71,224.32,195.7,223.94,195.67,223.56Z"/></g></mask><mask id="mask-5" x="49.8" y="197.03" width="217.79" height="114.41" maskUnits="userSpaceOnUse"><g id="react-mask-2-2" data-name="react-mask-2"><path id="react-path-1-2" data-name="react-path-1" class="cls-1" d="M195.67,223.56a78.41,78.41,0,0,1,71.91,78.13v9.75H49.8v-9.75a78.42,78.42,0,0,1,73-78.22c0,.41,0,.82,0,1.23,0,12.92,16.34,23.39,36.48,23.39s36.48-10.47,36.48-23.39C195.71,224.32,195.7,223.94,195.67,223.56Z"/></g></mask><mask id="mask-6-3" x="138.12" y="154.63" width="41.15" height="32.67" maskUnits="userSpaceOnUse"><g id="react-mask-4"><path id="react-path-3" class="cls-1" d="M138.13,168.93a20.69,20.69,0,0,0,41.13-.1,2.28,2.28,0,0,0-2-2.22h-37A2.32,2.32,0,0,0,138.13,168.93Z"/></g></mask><mask id="mask-7" x="138.12" y="166.61" width="41.15" height="35.93" maskUnits="userSpaceOnUse"><g id="react-mask-4-2" data-name="react-mask-4"><path id="react-path-3-2" data-name="react-path-3" class="cls-1" d="M138.13,168.93a20.69,20.69,0,0,0,41.13-.1,2.28,2.28,0,0,0-2-2.22h-37A2.32,2.32,0,0,0,138.13,168.93Z"/></g></mask><mask id="mask-8" x="14.95" y="6.54" width="287.48" height="304.9" maskUnits="userSpaceOnUse"><g id="react-mask-7"><rect id="react-path-9" class="cls-1" x="14.95" y="6.54" width="287.48" height="304.9"/></g></mask><mask id="mask-9" x="13.86" y="6.54" width="287.48" height="304.9" maskUnits="userSpaceOnUse"><g id="react-mask-6"><path id="react-path-8" class="cls-1" d="M112.86,66.82h91.66c19.87-11.46,23.6-31.81,9.54-49.47-3.5-4.4-9.54,12.79-28.12,13.85s-16.79-6.86-36.55-3.89S131.8,46.15,118.91,50Q106,53.77,112.86,66.82Z"/></g></mask></defs><title>mikev</title><g id="Avataaar"><g id="Avataaar_Circle" data-name="Avataaar/Circle"><g id="Circle"><g id="Circle-Background"><circle id="path-1" class="cls-2" cx="158.43" cy="158.43" r="153.43"/></g></g></g></g><g class="cls-3"><g id="Avataaar-2" data-name="Avataaar"><g id="Body"><path id="path-5-3" data-name="path-5" class="cls-4" d="M184.82,203.21v20h4.36a78.4,78.4,0,0,1,78.4,78.4v9.8H49.8v-9.8a78.4,78.4,0,0,1,78.4-78.4h4.35v-20A61,61,0,0,1,98,154.5a13.06,13.06,0,0,1-11.22-12.94V126.32a13.07,13.07,0,0,1,10.89-12.89v-6.71h0a61,61,0,0,1,61-61h0a61,61,0,0,1,61,61v6.71a13.07,13.07,0,0,1,10.89,12.89v15.24a13.06,13.06,0,0,1-11.22,12.94A61,61,0,0,1,184.82,203.21Z"/><g class="cls-5"><g id="Skin_-03-Brown" data-name="Skin/-03-Brown"><g id="Color"><rect class="cls-6" x="14.95" y="45.74" width="287.48" height="265.7"/></g></g></g><g class="cls-7"><path id="Neck-Shadow" class="cls-8" d="M219.67,131.76v25.05a61,61,0,0,1-122,0V148.1a61,61,0,1,0,122,0Z"/></g></g><g id="Clothing_Blazer-_-Shirt" data-name="Clothing/Blazer-+-Shirt"><g id="Shirt"><g id="Clothes"><path id="react-path-1-3" data-name="react-path-1" class="cls-9" d="M195.67,223.56a78.41,78.41,0,0,1,71.91,78.13v9.75H49.8v-9.75a78.42,78.42,0,0,1,73-78.22c0,.41,0,.82,0,1.23,0,12.92,16.34,23.39,36.48,23.39s36.48-10.47,36.48-23.39C195.71,224.32,195.7,223.94,195.67,223.56Z"/></g><g class="cls-10"><g id="Color_Palette_Black" data-name="Color/Palette/Black"><g id="_Color" data-name="Color"><rect class="cls-11" x="14.95" y="191.66" width="287.48" height="119.78"/></g></g></g><g class="cls-12"><g id="Shadowy" class="cls-13"><g id="Hola-_" data-name="Hola-"><ellipse class="cls-14" cx="159.23" cy="226.34" rx="43.16" ry="29.31"/></g></g></g></g><g id="Blazer"><path id="Saco" class="cls-15" d="M124.7,223.37a78.4,78.4,0,0,0-74.9,78.32h0v9.75h75.53a168.57,168.57,0,0,1-5.84-45.19A170.62,170.62,0,0,1,124.7,223.37Zm68.44,88.07h74.44v-9.75a78.41,78.41,0,0,0-73.8-78.27,170.75,170.75,0,0,1,5.2,42.83A169,169,0,0,1,193.14,311.44Z"/><path id="Pocket-hanky" class="cls-9" d="M212.05,285.3l10.4-7.8h0a4.35,4.35,0,0,1,5.29.05l7.17,5.58Z"/><path id="Wing" class="cls-16" d="M124.93,222.15q-6.53,31.57,5.45,89.29H113l-15.24-39.2,6.53-9.8-6.53-6.54,20.69-32.66A23.25,23.25,0,0,1,124.93,222.15Z"/><path id="Wing-2" data-name="Wing" class="cls-16" d="M192.45,222.15Q199,253.72,187,311.44h17.42l15.25-39.2-6.53-9.8,6.53-6.54L199,223.24A23.31,23.31,0,0,0,192.45,222.15Z"/></g></g><g id="Face"><g id="Mouth_Smile" data-name="Mouth/Smile"><g id="Mouth"><path id="react-path-3-3" data-name="react-path-3" class="cls-17" d="M138.13,168.93a20.69,20.69,0,0,0,41.13-.1,2.28,2.28,0,0,0-2-2.22h-37A2.32,2.32,0,0,0,138.13,168.93Z"/></g><g class="cls-18"><rect id="Teeth" class="cls-1" x="142.35" y="154.63" width="33.76" height="17.42" rx="5.44" ry="5.44"/></g><g class="cls-19"><g id="Tongue"><circle class="cls-20" cx="153.24" cy="190.57" r="11.98"/><circle class="cls-20" cx="164.13" cy="190.57" r="11.98"/></g></g></g><g id="Nose_Default" data-name="Nose/Default"><path id="Nose" class="cls-14" d="M145.62,148.1c0,4.81,5.85,8.71,13.07,8.71h0c7.22,0,13.07-3.9,13.07-8.71"/></g><g id="Eyes_Default-_" data-name="Eyes/Default-"><circle id="Eye" class="cls-21" cx="130.38" cy="128.5" r="6.53"/><circle id="Eye-2" data-name="Eye" class="cls-21" cx="187" cy="128.5" r="6.53"/></g><g id="Eyebrow_Outline_Default" data-name="Eyebrow/Outline/Default"><g id="I-Browse"><path id="Eyebrow" class="cls-21" d="M114.73,114.51c4.26-6,16-9.36,26-6.89a2.18,2.18,0,0,0,1-4.23c-11.7-2.87-25.23,1-30.61,8.6a2.18,2.18,0,1,0,3.55,2.52Z"/><path id="Eyebrow-2" data-name="Eyebrow" class="cls-21" d="M202.65,114.51c-4.26-6-16-9.36-26-6.89a2.18,2.18,0,0,1-1-4.23c11.69-2.87,25.23,1,30.61,8.6a2.18,2.18,0,1,1-3.55,2.52Z"/></g></g></g><g id="Top"><g class="cls-22"><g id="Top_Short-Hair_Frizzle" data-name="Top/Short-Hair/Frizzle"><g id="Hair-Maks"><path id="react-path-8-2" data-name="react-path-8" class="cls-23" d="M112.86,66.82h91.66c19.87-11.46,23.6-31.81,9.54-49.47-3.5-4.4-9.54,12.79-28.12,13.85s-16.79-6.86-36.55-3.89S131.8,46.15,118.91,50Q106,53.77,112.86,66.82Z"/></g><g class="cls-24"><g id="Skin_-03-Brown-2" data-name="Skin/-03-Brown"><g id="Color-2" data-name="Color"><rect class="cls-25" x="13.86" y="6.54" width="287.48" height="304.9"/></g></g></g></g></g></g></g></g></svg>