<svg id="Reorder" xmlns="http://www.w3.org/2000/svg" xmlns:xlink="http://www.w3.org/1999/xlink" viewBox="0 0 316.86 316.86"><defs><style>.cls-1{fill:#fff;}.cls-2{fill:#487185;stroke:#79b8d6;stroke-miterlimit:10;stroke-width:10px;}.cls-3{mask:url(#mask);}.cls-4{fill:#d0c6ac;}.cls-5{mask:url(#mask-2);}.cls-6{fill:#edb98a;}.cls-7{mask:url(#mask-3);}.cls-8{fill-opacity:0.1;}.cls-9{fill:#e6e6e6;}.cls-10{mask:url(#mask-4-2);}.cls-11{fill:#3c4f5c;}.cls-12{mask:url(#mask-5);}.cls-13{opacity:0.6;}.cls-14{fill-opacity:0.16;}.cls-15{fill-opacity:0.7;}.cls-16{fill-opacity:0.6;}.cls-17{mask:url(#mask-6-3);}.cls-18{fill:#28354b;}.cls-19{mask:url(#mask-7);}.cls-20{fill:#4a312c;}.cls-21{fill:#252c2f;}</style><mask id="mask" x="16.91" y="13.85" width="281.25" height="298.3" maskUnits="userSpaceOnUse"><g id="mask-4"><path id="path-3" class="cls-1" d="M29.69,184.31a127.84,127.84,0,0,0,255.68,0h12.79V13.85H16.91V184.31Z"/></g></mask><mask id="mask-2" x="16.91" y="52.2" width="281.25" height="259.95" maskUnits="userSpaceOnUse"><g id="mask-6"><path id="path-5" class="cls-1" d="M183.1,206.26v19.6h4.26a76.7,76.7,0,0,1,76.71,76.7v9.59H51v-9.59a76.7,76.7,0,0,1,76.7-76.7H132v-19.6A59.69,59.69,0,0,1,98.2,158.61a12.79,12.79,0,0,1-11-12.66V131a12.79,12.79,0,0,1,10.65-12.61v-6.57h0A59.66,59.66,0,0,1,157.53,52.2h0a59.66,59.66,0,0,1,59.66,59.66v6.57A12.79,12.79,0,0,1,227.85,131V146a12.8,12.8,0,0,1-11,12.66A59.68,59.68,0,0,1,183.1,206.26Z"/></g></mask><mask id="mask-3" x="51" y="52.2" width="213.07" height="259.95" maskUnits="userSpaceOnUse"><g id="mask-6-2" data-name="mask-6"><path id="path-5-2" data-name="path-5" class="cls-1" d="M183.1,206.26v19.6h4.26a76.7,76.7,0,0,1,76.71,76.7v9.59H51v-9.59a76.7,76.7,0,0,1,76.7-76.7H132v-19.6A59.69,59.69,0,0,1,98.2,158.61a12.79,12.79,0,0,1-11-12.66V131a12.79,12.79,0,0,1,10.65-12.61v-6.57h0A59.66,59.66,0,0,1,157.53,52.2h0a59.66,59.66,0,0,1,59.66,59.66v6.57A12.79,12.79,0,0,1,227.85,131V146a12.8,12.8,0,0,1-11,12.66A59.68,59.68,0,0,1,183.1,206.26Z"/></g></mask><mask id="mask-4-2" x="16.91" y="194.96" width="281.25" height="117.19" maskUnits="userSpaceOnUse"><g id="react-mask-2"><path id="react-path-1" class="cls-1" d="M193.71,226.17a76.71,76.71,0,0,1,70.36,76.45v9.53H51v-9.53a76.71,76.71,0,0,1,71.42-76.53c0,.4,0,.8,0,1.2,0,12.64,16,22.89,35.69,22.89s35.68-10.25,35.68-22.89C193.75,226.92,193.74,226.54,193.71,226.17Z"/></g></mask><mask id="mask-5" x="51" y="200.22" width="213.07" height="111.93" maskUnits="userSpaceOnUse"><g id="react-mask-2-2" data-name="react-mask-2"><path id="react-path-1-2" data-name="react-path-1" class="cls-1" d="M193.71,226.17a76.71,76.71,0,0,1,70.36,76.45v9.53H51v-9.53a76.71,76.71,0,0,1,71.42-76.53c0,.4,0,.8,0,1.2,0,12.64,16,22.89,35.69,22.89s35.68-10.25,35.68-22.89C193.75,226.92,193.74,226.54,193.71,226.17Z"/></g></mask><mask id="mask-6-3" x="16.91" y="13.85" width="281.25" height="298.3" maskUnits="userSpaceOnUse"><g id="react-mask-5"><rect id="react-path-7" class="cls-1" x="16.91" y="13.85" width="281.25" height="298.3"/></g></mask><mask id="mask-7" x="15.84" y="13.85" width="281.25" height="298.3" maskUnits="userSpaceOnUse"><g id="react-mask-4"><path id="react-path-6" class="cls-1" d="M116.25,69.27c.13-.06-.19-.08-1-.06,1,0,1.27,0,1,.06m-8.66-16.75s0,.17,0,0M222.27,89.24a66.8,66.8,0,0,0-1.62-10.5,54.08,54.08,0,0,0-2.65-8c-.65-1.58-2.16-3.75-2.34-5.46s1.13-3.54,1.41-5.5a16.82,16.82,0,0,0-.16-5.79c-.89-4.29-3.83-8.27-8.37-9.39-1-.25-3.16.06-3.88-.53s-1.39-3-2.13-3.91a9.55,9.55,0,0,0-8.92-3.75c-2.57.44-1.09,1-3-.54-1.07-.84-1.87-2.12-2.91-3a26,26,0,0,0-5.21-3.5,54.16,54.16,0,0,0-15.81-5.23c-9.9-1.62-20.45-.21-30,2.37a79.35,79.35,0,0,0-14,5.05c-1.9.92-3,1.68-5,1.92-3.12.38-5.76.37-8.71,1.69-9.1,4.07-13.19,13.52-9.65,22.56a15.62,15.62,0,0,0,3,4.88c1.62,1.79,2.21,1.44.81,3.5a55.88,55.88,0,0,0-5.28,9.77c-3.76,8.95-4.39,19-4.14,28.58a76.55,76.55,0,0,0,.75,10c.23,1.43.3,4.13,1.37,5.19a2.16,2.16,0,0,0,2.1.62c1.82-.5,1.19-1.84,1.23-3.09.22-6.27-.07-11.82,1.42-18a47.55,47.55,0,0,1,5.31-12.82,77.28,77.28,0,0,1,10.45-14.23c1-1,1.19-1.49,2.51-1.57a15,15,0,0,1,3.41.86c2.12.52,4.26,1,6.42,1.38a61.26,61.26,0,0,0,12,.56c7.91-.25,15.86-.8,23.53-2.79,5.1-1.33,9.61-3.7,14.49-5.44a8.88,8.88,0,0,1,1.53-.87,26.4,26.4,0,0,1,2.41,2.19c2.37,1.86,5,2.64,7.53,4.08,3.16,1.77.1-.77,1.84,1.44a21.48,21.48,0,0,1,1.18,2.57,19.05,19.05,0,0,0,5.25,6c2.08,1.57,5.21,2.33,6.27,4.37.82,1.57,1.1,3.71,1.76,5.39A109,109,0,0,0,212.68,103c1.85,3.35,3.87,6.27,4.07,10.09.07,1.33-1.19,9.31,1.89,6.88.46-.36,1.44-4.43,1.64-5.12a54.6,54.6,0,0,0,1.49-8.61,78.85,78.85,0,0,0,.5-17"/></g></mask></defs><title>reorder</title><g id="Avataaar"><g id="Avataaar_Circle" data-name="Avataaar/Circle"><g id="Circle"><g id="Circle-Background"><circle id="path-1" class="cls-2" cx="158.43" cy="158.43" r="153.43"/></g></g></g></g><g class="cls-3"><g id="Avataaar-2" data-name="Avataaar"><g id="Body"><path id="path-5-3" data-name="path-5" class="cls-4" d="M183.1,206.26v19.6h4.26a76.7,76.7,0,0,1,76.71,76.7v9.59H51v-9.59a76.7,76.7,0,0,1,76.7-76.7H132v-19.6A59.69,59.69,0,0,1,98.2,158.61a12.79,12.79,0,0,1-11-12.66V131a12.79,12.79,0,0,1,10.65-12.61v-6.57h0A59.66,59.66,0,0,1,157.53,52.2h0a59.66,59.66,0,0,1,59.66,59.66v6.57A12.79,12.79,0,0,1,227.85,131V146a12.8,12.8,0,0,1-11,12.66A59.68,59.68,0,0,1,183.1,206.26Z"/><g class="cls-5"><g id="Skin_-03-Brown" data-name="Skin/-03-Brown"><g id="Color"><rect class="cls-6" x="16.91" y="52.2" width="281.25" height="259.95"/></g></g></g><g class="cls-7"><path id="Neck-Shadow" class="cls-8" d="M217.19,136.37v24.5a59.66,59.66,0,0,1-119.32,0v-8.52a59.66,59.66,0,0,0,119.32,0Z"/></g></g><g id="Clothing_Shirt-Crew-Neck" data-name="Clothing/Shirt-Crew-Neck"><g id="Clothes"><path id="react-path-1-3" data-name="react-path-1" class="cls-9" d="M193.71,226.17a76.71,76.71,0,0,1,70.36,76.45v9.53H51v-9.53a76.71,76.71,0,0,1,71.42-76.53c0,.4,0,.8,0,1.2,0,12.64,16,22.89,35.69,22.89s35.68-10.25,35.68-22.89C193.75,226.92,193.74,226.54,193.71,226.17Z"/></g><g class="cls-10"><g id="Color_Palette_Gray-01" data-name="Color/Palette/Gray-01"><rect id="_Color" data-name="Color" class="cls-11" x="16.91" y="194.96" width="281.25" height="117.19"/></g></g><g class="cls-12"><g id="Shadowy" class="cls-13"><g id="Hola-_" data-name="Hola-"><ellipse class="cls-14" cx="158.07" cy="228.89" rx="42.23" ry="28.67"/></g></g></g></g><g id="Face"><g id="Mouth_Default" data-name="Mouth/Default"><path id="Mouth" class="cls-15" d="M142.62,172.59a14.91,14.91,0,0,0,14.91,14.91h0a14.91,14.91,0,0,0,14.92-14.91"/></g><g id="Nose_Default" data-name="Nose/Default"><path id="Nose" class="cls-14" d="M144.75,152.35c0,4.7,5.72,8.52,12.78,8.52h0c7.06,0,12.79-3.82,12.79-8.52"/></g><g id="Eyes_Default-_" data-name="Eyes/Default-"><circle id="Eye" class="cls-16" cx="129.83" cy="133.17" r="6.39"/><circle id="Eye-2" data-name="Eye" class="cls-16" cx="185.23" cy="133.17" r="6.39"/></g><g id="Eyebrow_Outline_Default" data-name="Eyebrow/Outline/Default"><g id="I-Browse"><path id="Eyebrow" class="cls-16" d="M114.52,119.49c4.18-5.87,15.61-9.16,25.46-6.74a2.13,2.13,0,0,0,1-4.14c-11.44-2.81-24.68,1-29.95,8.41a2.13,2.13,0,1,0,3.47,2.47Z"/><path id="Eyebrow-2" data-name="Eyebrow" class="cls-16" d="M200.54,119.49c-4.17-5.87-15.6-9.16-25.45-6.74a2.13,2.13,0,0,1-1-4.14c11.44-2.81,24.68,1,29.94,8.41a2.13,2.13,0,0,1-3.47,2.47Z"/></g></g></g><g id="Top"><g class="cls-17"><g id="Top_Short-Hair_Short-Curly" data-name="Top/Short-Hair/Short-Curly"><g id="Short-Hair"><path id="react-path-6-2" data-name="react-path-6" class="cls-18" d="M116.25,69.27c.13-.06-.19-.08-1-.06,1,0,1.27,0,1,.06m-8.66-16.75s0,.17,0,0M222.27,89.24a66.8,66.8,0,0,0-1.62-10.5,54.08,54.08,0,0,0-2.65-8c-.65-1.58-2.16-3.75-2.34-5.46s1.13-3.54,1.41-5.5a16.82,16.82,0,0,0-.16-5.79c-.89-4.29-3.83-8.27-8.37-9.39-1-.25-3.16.06-3.88-.53s-1.39-3-2.13-3.91a9.55,9.55,0,0,0-8.92-3.75c-2.57.44-1.09,1-3-.54-1.07-.84-1.87-2.12-2.91-3a26,26,0,0,0-5.21-3.5,54.16,54.16,0,0,0-15.81-5.23c-9.9-1.62-20.45-.21-30,2.37a79.35,79.35,0,0,0-14,5.05c-1.9.92-3,1.68-5,1.92-3.12.38-5.76.37-8.71,1.69-9.1,4.07-13.19,13.52-9.65,22.56a15.62,15.62,0,0,0,3,4.88c1.62,1.79,2.21,1.44.81,3.5a55.88,55.88,0,0,0-5.28,9.77c-3.76,8.95-4.39,19-4.14,28.58a76.55,76.55,0,0,0,.75,10c.23,1.43.3,4.13,1.37,5.19a2.16,2.16,0,0,0,2.1.62c1.82-.5,1.19-1.84,1.23-3.09.22-6.27-.07-11.82,1.42-18a47.55,47.55,0,0,1,5.31-12.82,77.28,77.28,0,0,1,10.45-14.23c1-1,1.19-1.49,2.51-1.57a15,15,0,0,1,3.41.86c2.12.52,4.26,1,6.42,1.38a61.26,61.26,0,0,0,12,.56c7.91-.25,15.86-.8,23.53-2.79,5.1-1.33,9.61-3.7,14.49-5.44a8.88,8.88,0,0,1,1.53-.87,26.4,26.4,0,0,1,2.41,2.19c2.37,1.86,5,2.64,7.53,4.08,3.16,1.77.1-.77,1.84,1.44a21.48,21.48,0,0,1,1.18,2.57,19.05,19.05,0,0,0,5.25,6c2.08,1.57,5.21,2.33,6.27,4.37.82,1.57,1.1,3.71,1.76,5.39A109,109,0,0,0,212.68,103c1.85,3.35,3.87,6.27,4.07,10.09.07,1.33-1.19,9.31,1.89,6.88.46-.36,1.44-4.43,1.64-5.12a54.6,54.6,0,0,0,1.49-8.61,78.85,78.85,0,0,0,.5-17"/></g><g class="cls-19"><g id="Skin_-03-Brown-2" data-name="Skin/-03-Brown"><g id="Color-2" data-name="Color"><rect class="cls-20" x="15.84" y="13.85" width="281.25" height="298.3"/></g></g></g><g id="Top__Resources_Prescription-02" data-name="Top/_Resources/Prescription-02"><g id="Wayfarers"><path id="Left" class="cls-21" d="M124.51,155.54h-2.94c-14.84,0-23.7-8.16-23.7-21.84,0-11,1.94-21.84,25.07-21.84h3.13c23.13,0,25.07,10.79,25.07,21.84C151.14,146.56,140.19,155.54,124.51,155.54Zm-1.72-37.28c-20.66,0-20.66,7.28-20.66,16.51,0,7.53,3.32,16.51,19.15,16.51h3.23c13.17,0,22.37-6.79,22.37-16.51,0-9.23,0-16.51-20.65-16.51Z"/><path id="Right" class="cls-21" d="M190.56,155.54h-2.94c-14.84,0-23.7-8.16-23.7-21.84,0-11,1.94-21.84,25.07-21.84h3.13c23.14,0,25.07,10.79,25.07,21.84C217.19,146.56,206.24,155.54,190.56,155.54Zm-1.72-37.28c-20.65,0-20.65,7.28-20.65,16.51,0,7.53,3.32,16.51,19.14,16.51h3.23c13.17,0,22.37-6.79,22.37-16.51,0-9.23,0-16.51-20.65-16.51Z"/><path id="Stuff" class="cls-21" d="M91.43,118c.74-.72,8.8-6.15,31.48-6.15,19,0,23,2,29.14,5l.44.22a18.48,18.48,0,0,0,5.13,1,18.12,18.12,0,0,0,4.86-.93c7-3.38,13.76-5.22,29.68-5.22,22.68,0,30.74,5.43,31.47,6.15a3.12,3.12,0,0,1,3.15,3.08v3.07a3.11,3.11,0,0,1-3.15,3.07s-7.35,0-7.35,3.08-2.09-4.45-2.09-6.15v-3a56.18,56.18,0,0,0-22-4.21c-12.62,0-18.9,2.24-24.29,4.46l.06.15v2.11l-2.37,5.7-2.91-1.15a12.39,12.39,0,0,0-1.61-.48,14.78,14.78,0,0,0-6.38-.3,8.49,8.49,0,0,0-2,.68l-2.82,1.37L147,124l.13-2.44.09-.21c-4.65-2.16-8.94-4.39-24.32-4.39a56.14,56.14,0,0,0-22,4.21v3c0,1.7-3.15,9.22-3.15,6.15s-6.3-3.08-6.3-3.08a3.11,3.11,0,0,1-3.15-3.07v-3.07A3.12,3.12,0,0,1,91.43,118Z"/></g></g></g></g></g></g></g></svg>