<svg xmlns="http://www.w3.org/2000/svg" xmlns:xlink="http://www.w3.org/1999/xlink" viewBox="0 0 316.86 316.86"><defs><style>.a{fill:#fff;}.b{fill:#487185;stroke:#79b8d6;stroke-miterlimit:10;stroke-width:10px;}.c{mask:url(#a);}.d{fill:#d0c6ac;}.e{mask:url(#b);}.f{fill:#edb98a;}.g{mask:url(#c);}.h{fill-opacity:0.1;}.i{fill:#e6e6e6;}.j{mask:url(#d);}.k{fill:#262e33;}.l{fill:#3a4c5a;}.m{fill:#2f4351;}.n{fill:#f2f2f2;}.o{fill-opacity:0.7;}.p{mask:url(#e);}.q{mask:url(#f);}.r{fill:#ff4f6d;}.s{fill-opacity:0.16;}.t{fill-opacity:0.6;}.u{mask:url(#g);}.v{fill:#331b0c;}.w{mask:url(#h);}.x{fill:#2c1b18;}.y{opacity:0.7;}.z{fill:url(#i);}.aa{fill:url(#j);}.ab{fill:#252c2f;}</style><mask id="a" x="0" y="-25.94" width="314.91" height="334" maskUnits="userSpaceOnUse"><g transform="translate(0.55 -0.76)"><path class="a" d="M13.76,165.68a143.15,143.15,0,0,0,286.29,0h14.31V-25.18H-.55V165.68Z"/></g></mask><mask id="b" x="0" y="17" width="314.91" height="291.06" maskUnits="userSpaceOnUse"><g transform="translate(0.55 -0.76)"><path class="a" d="M185.54,190.26V212.2h4.77a85.88,85.88,0,0,1,85.88,85.89v10.73H37.62V298.09a85.88,85.88,0,0,1,85.89-85.89h4.77V190.26a66.85,66.85,0,0,1-37.81-53.35,14.31,14.31,0,0,1-12.29-14.17V106A14.32,14.32,0,0,1,90.11,91.92V84.56h0a66.8,66.8,0,0,1,66.8-66.8h0a66.8,66.8,0,0,1,66.8,66.8v7.36A14.32,14.32,0,0,1,235.64,106v16.7a14.32,14.32,0,0,1-12.3,14.17A66.82,66.82,0,0,1,185.54,190.26Z"/></g></mask><mask id="c" x="38.17" y="17" width="238.57" height="291.06" maskUnits="userSpaceOnUse"><g transform="translate(0.55 -0.76)"><path class="a" d="M185.54,190.26V212.2h4.77a85.88,85.88,0,0,1,85.88,85.89v10.73H37.62V298.09a85.88,85.88,0,0,1,85.89-85.89h4.77V190.26a66.85,66.85,0,0,1-37.81-53.35,14.31,14.31,0,0,1-12.29-14.17V106A14.32,14.32,0,0,1,90.11,91.92V84.56h0a66.8,66.8,0,0,1,66.8-66.8h0a66.8,66.8,0,0,1,66.8,66.8v7.36A14.32,14.32,0,0,1,235.64,106v16.7a14.32,14.32,0,0,1-12.3,14.17A66.82,66.82,0,0,1,185.54,190.26Z"/></g></mask><mask id="d" x="0" y="176.84" width="314.91" height="131.21" maskUnits="userSpaceOnUse"><g transform="translate(0.55 -0.76)"><path class="a" d="M124.93,212.26h-1.42a85.88,85.88,0,0,0-85.89,85.89v10.67H276.19V298.15a85.88,85.88,0,0,0-85.88-85.89h-1.43a26.47,26.47,0,0,1,.23,3.58c0,16.47-14.42,29.82-32.2,29.82s-32.21-13.35-32.21-29.82A28.2,28.2,0,0,1,124.93,212.26Z"/></g></mask><mask id="e" x="134.92" y="136.29" width="45.07" height="35.79" maskUnits="userSpaceOnUse"><g transform="translate(0.55 -0.76)"><path class="a" d="M134.38,152.71a22.67,22.67,0,0,0,45.06-.11,2.49,2.49,0,0,0-2.2-2.43H136.73A2.55,2.55,0,0,0,134.38,152.71Z"/></g></mask><mask id="f" x="134.92" y="149.41" width="45.07" height="39.36" maskUnits="userSpaceOnUse"><g transform="translate(0.55 -0.76)"><path class="a" d="M134.38,152.71a22.67,22.67,0,0,0,45.06-.11,2.49,2.49,0,0,0-2.2-2.43H136.73A2.55,2.55,0,0,0,134.38,152.71Z"/></g></mask><mask id="g" x="0" y="-25.94" width="314.91" height="334" maskUnits="userSpaceOnUse"><g transform="translate(0.55 -0.76)"><rect class="a" x="-0.55" y="-25.18" width="314.91" height="334"/></g></mask><mask id="h" x="19.09" y="59.94" width="314.91" height="291.06" maskUnits="userSpaceOnUse"><g transform="translate(0.55 -0.76)"><path class="a" d="M177.7,177.81c-3,2.73-6.2,4-10.23,3.1-.7-.14-3.53-5.41-10.56-5.41s-9.87,5.27-10.56,5.41c-4,.87-7.23-.37-10.23-3.1-5.64-5.15-10.33-12.24-7.51-20,1.47-4,3.86-8.47,8.2-9.75,4.64-1.37,11.15,0,15.82-.94a10.2,10.2,0,0,0,4.28-1.74,10.16,10.16,0,0,0,4.27,1.74c4.68.94,11.19-.43,15.83.94,4.34,1.28,6.73,5.71,8.19,9.75,2.82,7.74-1.87,14.83-7.5,20m46.1-86.09c-4.06,10-2.49,22.5-3.25,33-.61,8.55-2.41,21.37-10,26.89-3.88,2.82-11,7.57-16,6.25-3.49-.92-3.86-10.93-8.45-14.68a26.77,26.77,0,0,0-18.26-5.83c-2.83.12-8.55.09-10.91,2.27-2.37-2.18-8.09-2.15-10.92-2.27a26.72,26.72,0,0,0-18.25,5.83c-4.59,3.75-5,13.76-8.46,14.68-5.07,1.32-12.14-3.43-16-6.25-7.59-5.52-9.39-18.34-10-26.89-.75-10.51.82-23-3.25-33-2,0-.67,19.24-.67,19.24v24.28c0,18.24,11.43,45.53,36.68,56,6.18,2.55,20.17,6.69,30.89,6.69s24.71-3.75,30.88-6.3c25.26-10.42,36.65-38.11,36.69-56.35V111s1.3-19.24-.68-19.24"/></g></mask><linearGradient id="i" x1="-134.91" y1="572.63" x2="-134.91" y2="571.44" gradientTransform="matrix(43.99, 0, 0, -35.14, 6056, 20211.91)" gradientUnits="userSpaceOnUse"><stop offset="0" stop-color="#fff" stop-opacity="0.5"/><stop offset="0.71" stop-opacity="0.5"/></linearGradient><linearGradient id="j" x1="-134.64" y1="572.63" x2="-134.64" y2="571.44" gradientTransform="matrix(43.99, 0, 0, -35.14, 6117.57, 20211.91)" xlink:href="#i"/></defs><title>rockstardev</title><circle class="b" cx="159.4" cy="158.4" r="153.4"/><g class="c"><path class="d" d="M185.54,190.26V212.2h4.77a85.88,85.88,0,0,1,85.88,85.89v10.73H37.62V298.09a85.88,85.88,0,0,1,85.89-85.89h4.77V190.26a66.85,66.85,0,0,1-37.81-53.35,14.31,14.31,0,0,1-12.29-14.17V106A14.32,14.32,0,0,1,90.11,91.92V84.56h0a66.8,66.8,0,0,1,66.8-66.8h0a66.8,66.8,0,0,1,66.8,66.8v7.36A14.32,14.32,0,0,1,235.64,106v16.7a14.32,14.32,0,0,1-12.3,14.17A66.82,66.82,0,0,1,185.54,190.26Z" transform="translate(0.55 -0.76)"/><g class="e"><rect class="f" y="17" width="314.91" height="291.06"/></g><g class="g"><path class="h" d="M223.71,112v27.44a66.8,66.8,0,0,1-133.6,0v-9.55a66.8,66.8,0,0,0,133.6,0Z" transform="translate(0.55 -0.76)"/></g><path class="i" d="M124.93,212.26h-1.42a85.88,85.88,0,0,0-85.89,85.89v10.67H276.19V298.15a85.88,85.88,0,0,0-85.88-85.89h-1.43a26.47,26.47,0,0,1,.23,3.58c0,16.47-14.42,29.82-32.2,29.82s-32.21-13.35-32.21-29.82A28.2,28.2,0,0,1,124.93,212.26Z" transform="translate(0.55 -0.76)"/><g class="j"><rect class="k" y="176.84" width="314.91" height="131.21"/></g><path class="l" d="M119.67,212.35a85.88,85.88,0,0,0-82.05,85.8v10.67h82.74a184.77,184.77,0,0,1-6.4-49.5A187.15,187.15,0,0,1,119.67,212.35Zm75,96.47h81.54V298.15a85.88,85.88,0,0,0-80.84-85.74A187.22,187.22,0,0,1,201,259.32,185.19,185.19,0,0,1,194.65,308.82Z" transform="translate(0.55 -0.76)"/><path class="i" d="M215.36,280.19l11.4-8.55h0a4.77,4.77,0,0,1,5.79.05l7.86,6.12Z" transform="translate(0.55 -0.76)"/><path class="m" d="M119.93,211q-7.16,34.59,6,97.81H106.81l-16.7-42.94,7.15-10.74L90.11,248l22.66-35.79A25.61,25.61,0,0,1,119.93,211Z" transform="translate(0.55 -0.76)"/><path class="m" d="M193.89,211q7.16,34.59-6,97.81H207l16.7-42.94-7.16-10.74,7.16-7.15L201,212.2A25.54,25.54,0,0,0,193.89,211Z" transform="translate(0.55 -0.76)"/><path class="n" d="M185.54,203.3c8.07,5.48,13.12,13.26,13.12,21.89,0,8.83-5.28,16.77-13.7,22.27l-7.08-5.59-5.47.4,1.2-3.76-.1-.07c7.28-3.75,12-9.9,12-16.84Zm-57.26,0c-8.08,5.48-13.12,13.26-13.12,21.89,0,8.83,5.28,16.77,13.69,22.27l7.09-5.59,5.46.4-1.19-3.76.09-.07c-7.28-3.75-12-9.9-12-16.84Z" transform="translate(0.55 -0.76)"/><path class="o" d="M134.38,152.71a22.67,22.67,0,0,0,45.06-.11,2.49,2.49,0,0,0-2.2-2.43H136.73A2.55,2.55,0,0,0,134.38,152.71Z" transform="translate(0.55 -0.76)"/><g class="p"><rect class="a" x="139.56" y="136.29" width="36.98" height="19.09" rx="5.96" ry="5.96"/></g><g class="q"><circle class="r" cx="151.49" cy="175.65" r="13.12"/><circle class="r" cx="163.42" cy="175.65" r="13.12"/></g><path class="s" d="M142.59,129.89c0,5.27,6.41,9.55,14.32,9.55h0c7.9,0,14.31-4.28,14.31-9.55" transform="translate(0.55 -0.76)"/><circle class="t" cx="126.44" cy="107.66" r="7.16"/><path class="t" d="M174.33,112a14.71,14.71,0,0,1,25.77-1.85c.75,1.29-.11,2.44-1.11,1.7a18.77,18.77,0,0,0-23,1.38C175,114.12,173.78,113.31,174.33,112Z" transform="translate(0.55 -0.76)"/><path class="t" d="M108.75,93.1c4.67-6.57,17.47-10.25,28.5-7.54a2.39,2.39,0,1,0,1.14-4.64c-12.81-3.14-27.63,1.12-33.53,9.42a2.38,2.38,0,1,0,3.89,2.76Z" transform="translate(0.55 -0.76)"/><path class="t" d="M205.06,93.1c-4.67-6.57-17.47-10.25-28.5-7.54a2.39,2.39,0,0,1-1.14-4.64C188.23,77.78,203.06,82,209,90.34a2.38,2.38,0,1,1-3.89,2.76Z" transform="translate(0.55 -0.76)"/><g class="u"><path class="v" d="M177.7,177.81c-3,2.73-6.2,4-10.23,3.1-.7-.14-3.53-5.41-10.56-5.41s-9.87,5.27-10.56,5.41c-4,.87-7.23-.37-10.23-3.1-5.64-5.15-10.33-12.24-7.51-20,1.47-4,3.86-8.47,8.2-9.75,4.64-1.37,11.15,0,15.82-.94a10.2,10.2,0,0,0,4.28-1.74,10.16,10.16,0,0,0,4.27,1.74c4.68.94,11.19-.43,15.83.94,4.34,1.28,6.73,5.71,8.19,9.75,2.82,7.74-1.87,14.83-7.5,20m46.1-86.09c-4.06,10-2.49,22.5-3.25,33-.61,8.55-2.41,21.37-10,26.89-3.88,2.82-11,7.57-16,6.25-3.49-.92-3.86-10.93-8.45-14.68a26.77,26.77,0,0,0-18.26-5.83c-2.83.12-8.55.09-10.91,2.27-2.37-2.18-8.09-2.15-10.92-2.27a26.72,26.72,0,0,0-18.25,5.83c-4.59,3.75-5,13.76-8.46,14.68-5.07,1.32-12.14-3.43-16-6.25-7.59-5.52-9.39-18.34-10-26.89-.75-10.51.82-23-3.25-33-2,0-.67,19.24-.67,19.24v24.28c0,18.24,11.43,45.53,36.68,56,6.18,2.55,20.17,6.69,30.89,6.69s24.71-3.75,30.88-6.3c25.26-10.42,36.65-38.11,36.69-56.35V111s1.3-19.24-.68-19.24" transform="translate(0.55 -0.76)"/><g class="w"><rect class="x" x="19.09" y="59.94" width="314.91" height="291.06"/></g><path class="y" d="M147,109c0,11.57-9.84,21-26.24,21H117.5c-16.4,0-23-9.39-23-21h0c0-11.58,1.53-21,24.49-21h3.5c23,0,24.49,9.38,24.49,21Z" transform="translate(0.55 -0.76)"/><path class="z" d="M147,109c0,11.57-9.84,21-26.24,21H117.5c-16.4,0-23-9.39-23-21h0c0-11.58,1.53-21,24.49-21h3.5c23,0,24.49,9.38,24.49,21Z" transform="translate(0.55 -0.76)"/><path class="y" d="M220.46,109c0,11.57-9.83,21-26.24,21h-3.28c-16.39,0-23-9.39-23-21h0c0-11.58,1.54-21,24.5-21H196c23,0,24.49,9.38,24.49,21Z" transform="translate(0.55 -0.76)"/><path class="aa" d="M220.46,109c0,11.57-9.83,21-26.24,21h-3.28c-16.39,0-23-9.39-23-21h0c0-11.58,1.54-21,24.5-21H196c23,0,24.49,9.38,24.49,21Z" transform="translate(0.55 -0.76)"/><path class="ab" d="M120.78,133.47H117.5c-16.56,0-26.45-9.14-26.45-24.45,0-12.38,2.16-24.46,28-24.46h3.5c25.83,0,28,12.08,28,24.46C150.52,123.41,138.29,133.47,120.78,133.47ZM119,91.55c-21,0-21,7.71-21,17.47,0,8,3.37,17.46,19.46,17.46h3.28c13.39,0,22.75-7.18,22.75-17.46,0-9.76,0-17.47-21-17.47Z" transform="translate(0.55 -0.76)"/><path class="ab" d="M194.22,133.47h-3.28c-16.56,0-26.45-9.14-26.45-24.45,0-12.38,2.16-24.46,28-24.46H196c25.83,0,28,12.08,28,24.46C224,123.41,211.74,133.47,194.22,133.47Zm-1.74-41.92c-21,0-21,7.71-21,17.47,0,8,3.38,17.46,19.46,17.46h3.28c13.4,0,22.75-7.18,22.75-17.46,0-9.76,0-17.47-21-17.47Z" transform="translate(0.55 -0.76)"/><path class="ab" d="M84.06,91.55c.82-.82,9.77-7,35-7,21.13,0,25.61,2.25,32.38,5.64l.49.25a19.81,19.81,0,0,0,5.7,1.09,19.59,19.59,0,0,0,5.4-1.05c7.73-3.84,15.29-5.93,33-5.93,25.2,0,34.16,6.17,35,7A3.49,3.49,0,0,1,234.44,95v3.5A3.49,3.49,0,0,1,231,102s-7,0-7,3.49-3.5-5-3.5-7v-3.4c-4.26-1.67-11.9-3.59-24.48-3.59-14,0-21,1.35-27,3.87l.06.17-3,1.2,3,1.2-2.62,6.48-3.24-1.31a15.07,15.07,0,0,0-1.78-.55,16.09,16.09,0,0,0-7.1-.33,9.12,9.12,0,0,0-2.24.77L149,104.61l-3.13-6.25,3.12-1.56h0l-3-1.21.09-.23c-5.16-2.46-9.92-3.8-27-3.8-12.58,0-20.21,1.91-24.48,3.58v3.41c0,1.93-3.49,10.48-3.49,7s-7-3.49-7-3.49a3.5,3.5,0,0,1-3.5-3.49V95A3.5,3.5,0,0,1,84.06,91.55Z" transform="translate(0.55 -0.76)"/></g></g></svg>
