<?xml version="1.0" encoding="utf-8"?>
<!-- Generator: Adobe Illustrator 22.0.0, SVG Export Plug-In . SVG Version: 6.00 Build 0)  -->
<svg version="1.1" id="Calque_1" xmlns="http://www.w3.org/2000/svg" xmlns:xlink="http://www.w3.org/1999/xlink" x="0px" y="0px"
	 viewBox="0 0 316.9 316.9" style="enable-background:new 0 0 316.9 316.9;" xml:space="preserve">
<style type="text/css">
	.st0{fill:#487185;stroke:#79B8D6;stroke-width:10;stroke-miterlimit:10;}
	.st1{filter:url(#Adobe_OpacityMaskFilter);}
	.st2{fill:#FFFFFF;}
	.st3{mask:url(#mask-4_1_);}
	.st4{fill:#D0C6AC;}
	.st5{filter:url(#Adobe_OpacityMaskFilter_1_);}
	.st6{mask:url(#mask-6_1_);}
	.st7{fill:#EDB98A;}
	.st8{filter:url(#Adobe_OpacityMaskFilter_2_);}
	.st9{mask:url(#mask-6_2_);fill-opacity:0.1;}
	.st10{fill:#E6E6E6;}
	.st11{filter:url(#Adobe_OpacityMaskFilter_3_);}
	.st12{mask:url(#react-mask-2_1_);}
	.st13{fill:#FF5C5C;}
	.st14{filter:url(#Adobe_OpacityMaskFilter_4_);}
	.st15{mask:url(#react-mask-2_2_);}
	.st16{fill-opacity:0.7;}
	.st17{fill-opacity:0.16;}
	.st18{fill-opacity:0.6;}
	.st19{filter:url(#Adobe_OpacityMaskFilter_5_);}
	.st20{mask:url(#react-mask-4_1_);}
	.st21{fill:#2E3257;}
	.st22{filter:url(#Adobe_OpacityMaskFilter_6_);}
	.st23{mask:url(#react-mask-3_1_);}
	.st24{fill:#4A312C;}
</style>
<desc>Created with getavataaars.com</desc>
<g id="Avataaar_1_">
	<g id="Avataaar_x2F_Circle" transform="translate(-825.000000, -1100.000000)">
		<g transform="translate(825.000000, 1100.000000)">
			<g id="Circle" transform="translate(12.000000, 40.000000)">
				<g id="Circle-Background">
					<circle id="path-1_1_" class="st0" cx="146.4" cy="118.4" r="153.4"/>
				</g>
			</g>
			<g id="Mask">
			</g>
			<defs>
				<filter id="Adobe_OpacityMaskFilter" filterUnits="userSpaceOnUse" x="13.8" y="5" width="288.6" height="306.1">
					<feColorMatrix  type="matrix" values="1 0 0 0 0  0 1 0 0 0  0 0 1 0 0  0 0 0 1 0"/>
				</filter>
			</defs>
			<mask maskUnits="userSpaceOnUse" x="13.8" y="5" width="288.6" height="306.1" id="mask-4_1_">
				<g class="st1">
					<path id="path-3_1_" class="st2" d="M26.9,179.9c0,72.5,58.7,131.2,131.2,131.2s131.2-58.7,131.2-131.2h13.1V5H13.8v174.9H26.9
						z"/>
				</g>
			</mask>
			<g id="Avataaar" class="st3">
				<g id="Body" transform="translate(32.000000, 36.000000)">
					<g>
						<path id="path-5_1_" class="st4" d="M152.3,166.5v20.1h4.4l0,0c43.5,0,78.7,35.2,78.7,78.7v9.8H16.8v-9.8
							c0-43.5,35.2-78.7,78.7-78.7l0,0h4.4v-20.1c-18.8-9-32.4-27.3-34.7-48.9c-6.4-0.9-11.3-6.4-11.3-13V89.3
							c0-6.5,4.7-11.9,10.9-12.9v-6.7l0,0c0-33.8,27.4-61.2,61.2-61.2l0,0l0,0c33.8,0,61.2,27.4,61.2,61.2v6.7
							c6.2,1,10.9,6.4,10.9,12.9v15.3c0,6.6-4.9,12.1-11.3,13C184.7,139.2,171.2,157.5,152.3,166.5z"/>
					</g>
					<defs>
						<filter id="Adobe_OpacityMaskFilter_1_" filterUnits="userSpaceOnUse" x="-18.2" y="8.4" width="288.6" height="266.8">
							<feColorMatrix  type="matrix" values="1 0 0 0 0  0 1 0 0 0  0 0 1 0 0  0 0 0 1 0"/>
						</filter>
					</defs>
					<mask maskUnits="userSpaceOnUse" x="-18.2" y="8.4" width="288.6" height="266.8" id="mask-6_1_">
						<g class="st5">
							<path id="path-5_2_" class="st2" d="M152.3,166.5v20.1h4.4l0,0c43.5,0,78.7,35.2,78.7,78.7v9.8H16.8v-9.8
								c0-43.5,35.2-78.7,78.7-78.7l0,0h4.4v-20.1c-18.8-9-32.4-27.3-34.7-48.9c-6.4-0.9-11.3-6.4-11.3-13V89.3
								c0-6.5,4.7-11.9,10.9-12.9v-6.7l0,0c0-33.8,27.4-61.2,61.2-61.2l0,0l0,0c33.8,0,61.2,27.4,61.2,61.2v6.7
								c6.2,1,10.9,6.4,10.9,12.9v15.3c0,6.6-4.9,12.1-11.3,13C184.7,139.2,171.2,157.5,152.3,166.5z"/>
						</g>
					</mask>
					<g id="Skin_x2F__xD83D__xDC76__xD83C__xDFFD_-03-Brown" class="st6">
						<g id="Color" transform="translate(-32.000000, 0.000000)">
							<rect x="13.8" y="8.4" class="st7" width="288.6" height="266.8"/>
						</g>
					</g>
					<defs>
						<filter id="Adobe_OpacityMaskFilter_2_" filterUnits="userSpaceOnUse" x="64.9" y="94.7" width="122.5" height="86.4">
							<feColorMatrix  type="matrix" values="1 0 0 0 0  0 1 0 0 0  0 0 1 0 0  0 0 0 1 0"/>
						</filter>
					</defs>
					<mask maskUnits="userSpaceOnUse" x="64.9" y="94.7" width="122.5" height="86.4" id="mask-6_2_">
						<g class="st8">
							<path id="path-5_3_" class="st2" d="M152.3,166.5v20.1h4.4l0,0c43.5,0,78.7,35.2,78.7,78.7v9.8H16.8v-9.8
								c0-43.5,35.2-78.7,78.7-78.7l0,0h4.4v-20.1c-18.8-9-32.4-27.3-34.7-48.9c-6.4-0.9-11.3-6.4-11.3-13V89.3
								c0-6.5,4.7-11.9,10.9-12.9v-6.7l0,0c0-33.8,27.4-61.2,61.2-61.2l0,0l0,0c33.8,0,61.2,27.4,61.2,61.2v6.7
								c6.2,1,10.9,6.4,10.9,12.9v15.3c0,6.6-4.9,12.1-11.3,13C184.7,139.2,171.2,157.5,152.3,166.5z"/>
						</g>
					</mask>
					<path id="Neck-Shadow" class="st9" d="M187.3,94.7v25.1c0,33.8-27.4,61.2-61.2,61.2s-61.2-27.4-61.2-61.2V94.7v16.4
						c0,33.8,27.4,61.2,61.2,61.2s61.2-27.4,61.2-61.2V94.7z"/>
				</g>
				<g id="Clothing_x2F_Graphic-Shirt" transform="translate(0.000000, 170.000000)">
					<g id="Clothes">
						<path id="react-path-1_1_" class="st10" d="M194.9,52.9c40.6,3.1,72.6,37.1,72.6,78.5v9.8H48.8v-9.8c0-41.8,32.6-76,73.7-78.6
							c-0.3,1.2-0.4,2.4-0.4,3.6c0,13,16.4,23.5,36.6,23.5s36.6-10.5,36.6-23.5C195.3,55.2,195.1,54,194.9,52.9L194.9,52.9z"/>
					</g>
					<defs>
						<filter id="Adobe_OpacityMaskFilter_3_" filterUnits="userSpaceOnUse" x="13.8" y="20.9" width="288.6" height="120.3">
							<feColorMatrix  type="matrix" values="1 0 0 0 0  0 1 0 0 0  0 0 1 0 0  0 0 0 1 0"/>
						</filter>
					</defs>
					<mask maskUnits="userSpaceOnUse" x="13.8" y="20.9" width="288.6" height="120.3" id="react-mask-2_1_">
						<g class="st11">
							<path id="react-path-1_2_" class="st2" d="M194.9,52.9c40.6,3.1,72.6,37.1,72.6,78.5v9.8H48.8v-9.8c0-41.8,32.6-76,73.7-78.6
								c-0.3,1.2-0.4,2.4-0.4,3.6c0,13,16.4,23.5,36.6,23.5s36.6-10.5,36.6-23.5C195.3,55.2,195.1,54,194.9,52.9L194.9,52.9z"/>
						</g>
					</mask>
					<g id="Color_x2F_Palette_x2F_Gray-01" class="st12">
						<rect id="_xD83D__xDD8D_Color_1_" x="13.8" y="20.9" class="st13" width="288.6" height="120.3"/>
					</g>
					<defs>
						<filter id="Adobe_OpacityMaskFilter_4_" filterUnits="userSpaceOnUse" x="136.2" y="85.4" width="43.7" height="45.9">
							<feColorMatrix  type="matrix" values="1 0 0 0 0  0 1 0 0 0  0 0 1 0 0  0 0 0 1 0"/>
						</filter>
					</defs>
					<mask maskUnits="userSpaceOnUse" x="136.2" y="85.4" width="43.7" height="45.9" id="react-mask-2_2_">
						<g class="st14">
							<path id="react-path-1_3_" class="st2" d="M194.9,52.9c40.6,3.1,72.6,37.1,72.6,78.5v9.8H48.8v-9.8c0-41.8,32.6-76,73.7-78.6
								c-0.3,1.2-0.4,2.4-0.4,3.6c0,13,16.4,23.5,36.6,23.5s36.6-10.5,36.6-23.5C195.3,55.2,195.1,54,194.9,52.9L194.9,52.9z"/>
						</g>
					</mask>
					<g id="Clothing_x2F_Graphic_x2F_Pizza" class="st15">
						<g id="Group-2" transform="translate(77.000000, 58.000000)">
							<g transform="translate(35.000000, 1.000000)">
								<path id="Fill-29" class="st2" d="M58.1,53c-4.5,1.5-9.3,3.6-11.9,7.7c-2,3.2-2.2-0.5-5,0.6c-2.7,1.1-2,5.7-3,8
									c-0.8-1.3-1.1-2.8-2.1-3.9c0.8-0.5,1.5-1.1,2-1.9c0.2-0.3-5.2,0.4-5.6,0.5c-1.5,0.4-3,0.8-4.5,1.6c0.4-0.6,0.8-1.1,1.1-1.7
									c0.3-0.5,0.7-1,1-1.6c0.2-0.7,0.6-0.7,1.2,0c0.8,0,1.3,0.4,2.1,0.2c3.2-0.7,4.2-6.8,0.3-6.5c1.7-3.1,3.3-6.3,4.6-9.6
									c0.5,4.7,6.6,3.1,8.4,0.6c2.3-3.3-0.7-9.5-4.9-8.9c0.6-1.5,1.3-3,1.8-4.6c1.2,1.8,3.3,2.6,5,3.8c1.8,1.2,3.3,2.7,4.6,4.4
									c2.6,3.4,4.1,7.7,6.8,11C59.4,52.7,58.7,52.8,58.1,53 M67.9,48.3c-0.7-6.3-5.6-12.7-10.3-16.6C54.8,29.3,46.4,23.6,43,28
									c2.7,1.2,5.7,1.5,8.4,2.7c3.6,1.7,6.5,4.5,8.9,7.7c3.4,4.4,8.7,13.4,0.5,15.7c0.6-0.4,0.9-0.8,1.3-1.4
									c-1.1-0.3-0.7-2.1-1-3.2c-0.5-1.4-1.3-2.7-2.1-3.9c-1.2-1.9-2.5-3.9-3.8-5.7c-1.8-2.4-4-4.3-6.5-5.9c-1-0.6-1.9-1.2-3.1-1.5
									c-1.5-0.4-1,0.1-1.4-1.3c-0.3-0.8,0-1.9-0.3-2.8c-2.2,1.8-2.9,4.4-3.8,7c-1.1,2.9-2.3,5.8-3.5,8.7
									c-2.9,7.1-6.6,13.6-10.8,20c-0.7,1.1-2.4,3.2-1.2,4.6c1.1,1.2,2.5,0.3,3.7-0.2c1.6-0.7,3.7-2.4,5.4-1.5
									c2.2,1.2,1.2,5.4,4.6,5.3c3.4-0.2,2.8-5.8,3.9-8c2.5,1.8,4.6,0.7,6.1-1.8c1.8-2.9,4.1-4,7.1-5.4c1.2-0.6,3.3-2.1,4.6-2.3
									c1.1-0.2,2.1,1,3.5,0.9C66.9,55.6,68.3,51.1,67.9,48.3"/>
								<path id="Fill-31" class="st2" d="M44.5,51.3c-2.7-0.5-6.3-0.1-6.6,3.4c-0.1,2.2,1.5,4.2,3.4,5.1
									C46.9,62.6,51.2,52.6,44.5,51.3"/>
								<path id="Fill-33" class="st2" d="M55.2,47.3c-0.7-0.8-1.9-1.4-2.9-1.1c0.3-0.2,0.6-0.7,0.9-0.9c-3.5-2.5-5.6,3.8-3.7,6.3
									C52.5,55.4,58.4,50.8,55.2,47.3"/>
							</g>
						</g>
					</g>
				</g>
				<g id="Face" transform="translate(76.000000, 82.000000)">
					<g id="Mouth_x2F_Default" transform="translate(2.000000, 52.000000)">
						<path id="Mouth" class="st16" d="M64.8,33.9c0,8.5,6.9,15.3,15.3,15.3l0,0c8.5,0,15.3-6.9,15.3-15.3"/>
					</g>
					<g id="Nose_x2F_Default" transform="translate(28.000000, 40.000000)">
						<path id="Nose" class="st17" d="M41,25.1c0,4.8,5.9,8.7,13.1,8.7l0,0c7.2,0,13.1-3.9,13.1-8.7"/>
					</g>
					<g id="Eyes_x2F_Default-_xD83D__xDE00_" transform="translate(0.000000, 8.000000)">
						<circle id="Eye" class="st18" cx="53.7" cy="37.5" r="6.6"/>
						<circle id="Eye_1_" class="st18" cx="110.5" cy="37.5" r="6.6"/>
					</g>
					<g id="Eyebrow_x2F_Outline_x2F_Default">
						<g id="I-Browse" transform="translate(12.000000, 6.000000)">
							<path id="Eyebrow" class="st18" d="M26,25.4c4.3-6,16-9.4,26.1-6.9c1.2,0.3,2.4-0.4,2.6-1.6c0.3-1.2-0.4-2.4-1.6-2.6
								c-11.7-2.9-25.3,1-30.7,8.6c-0.7,1-0.5,2.3,0.5,3C23.9,26.6,25.3,26.4,26,25.4z"/>
							<path id="Eyebrow_1_" class="st18" d="M114.2,25.4c-4.3-6-16-9.4-26.1-6.9c-1.2,0.3-2.4-0.4-2.6-1.6s0.4-2.4,1.6-2.6
								c11.7-2.9,25.3,1,30.7,8.6c0.7,1,0.5,2.3-0.5,3S114.9,26.4,114.2,25.4z"/>
						</g>
					</g>
				</g>
				<g id="Top">
					<g id="Mask_1_">
					</g>
					<defs>
						<filter id="Adobe_OpacityMaskFilter_5_" filterUnits="userSpaceOnUse" x="13.8" y="5" width="288.6" height="306.1">
							<feColorMatrix  type="matrix" values="1 0 0 0 0  0 1 0 0 0  0 0 1 0 0  0 0 0 1 0"/>
						</filter>
					</defs>
					<mask maskUnits="userSpaceOnUse" x="13.8" y="5" width="288.6" height="306.1" id="react-mask-4_1_">
						<g class="st19">
							<rect id="react-path-5_1_" x="13.8" y="5" class="st2" width="288.6" height="306.1"/>
						</g>
					</mask>
					<g id="Top_x2F_Short-Hair_x2F_Dreads-01" class="st20">
						<g transform="translate(-1.000000, 0.000000)">
							<g id="Hair" transform="translate(1.000000, 0.000000)">
								<g id="Dreads-With-Cut">
									<path id="react-path-7_1_" class="st21" d="M217,85.8c1.9,1.1,3.4,11.9,3.5,16.1c0,2.6,0.1,12.3-2.6,11.5
										c-0.8-0.3-2.1-5.4-2.3-8.4c-0.2-3-1.9-13.3-4.5-18c-0.6-1.1-2.3-3-1.6-3.9c0.9-1.1,1.8-0.5,2.9,0
										C213.7,83.5,216.7,85.7,217,85.8z M217.8,82.6c-0.8,1.1-6.4-1.9-8.7-3.2c-19.5-10.8-23.3-14.2-54-13.8s-51.8,14.9-53,16.3
										c-0.8,1-1.9,3.8-2.7,11.4c-0.9,7.6,0.2,21.3-2.9,21.3c-2.7,0-3.2-26-2.1-36.3c0.2-1.6,0.9-4.4,0.4-5.8
										c-0.4-1.2-2.5-1.2-2.2-3.3c0.4-2.4,2.8-1.2,3.8-2.3c2-2.1-1.1-2.6-1.6-4.5c-0.7-2.8,1.4-3.5,3.4-4.4c2.1-1,1.9-0.1,3.6-2
										c-2.3-1.7-3.2-4,0-5.3c1.4-0.5,4.9,0.2,5.9-0.6c0.3-0.2,0.4-1.4,0.6-1.6c1.7-2.4,1.3-4.2,1.1-6.9c-0.1-2.2-0.1-4.3,2.5-4.5
										c1.8-0.1,3.2,1.3,4.8,1.7c1.8,0.5,1.1,0.8,2.5-0.1c2.4-1.7,0.8-4.9,2.7-6.9c2.6-2.7,4.4,1.2,6.5,1.5c4.6,0.6,3.1-4,5.9-5.8
										c3.3-2.1,3.6,2.5,5.6,2.6c1.8,0.1,5-3.3,6.5-3.9c4.6-1.9,6.8,3.4,11.2,2.7c3.2-0.5,4-0.9,6.9,0.9c2.8,1.7,3.4,0.5,6.6,0.5
										c2.2,0,3.6,1.8,5.4,2c0.9,0.1,1.8-0.9,2.8-0.8c3.5,0.2,3.8,4.8,6.6,6.1c2.6,1.2,5.6-0.5,8.1-0.8c6.2-0.7,2,5.1,2.1,8.5
										c2.4,0.6,4.9-1.7,7.4-1.3c3.8,0.7,2.4,4.6,1.5,7.3c2.7,0,9.6-3,11.3,0.8c0.9,1.9-1.2,4.5-1.1,6.5c0,2.8,2.1,5.1,2.8,7.7
										C218.9,69.9,220.3,79.4,217.8,82.6z"/>
								</g>
								<defs>
									<filter id="Adobe_OpacityMaskFilter_6_" filterUnits="userSpaceOnUse" x="13.8" y="5" width="288.6" height="306.1">
										<feColorMatrix  type="matrix" values="1 0 0 0 0  0 1 0 0 0  0 0 1 0 0  0 0 0 1 0"/>
									</filter>
								</defs>
								<mask maskUnits="userSpaceOnUse" x="13.8" y="5" width="288.6" height="306.1" id="react-mask-3_1_">
									<g class="st22">
										<path id="react-path-7_2_" class="st2" d="M217,85.8c1.9,1.1,3.4,11.9,3.5,16.1c0,2.6,0.1,12.3-2.6,11.5
											c-0.8-0.3-2.1-5.4-2.3-8.4c-0.2-3-1.9-13.3-4.5-18c-0.6-1.1-2.3-3-1.6-3.9c0.9-1.1,1.8-0.5,2.9,0
											C213.7,83.5,216.7,85.7,217,85.8z M217.8,82.6c-0.8,1.1-6.4-1.9-8.7-3.2c-19.5-10.8-23.3-14.2-54-13.8s-51.8,14.9-53,16.3
											c-0.8,1-1.9,3.8-2.7,11.4c-0.9,7.6,0.2,21.3-2.9,21.3c-2.7,0-3.2-26-2.1-36.3c0.2-1.6,0.9-4.4,0.4-5.8
											c-0.4-1.2-2.5-1.2-2.2-3.3c0.4-2.4,2.8-1.2,3.8-2.3c2-2.1-1.1-2.6-1.6-4.5c-0.7-2.8,1.4-3.5,3.4-4.4c2.1-1,1.9-0.1,3.6-2
											c-2.3-1.7-3.2-4,0-5.3c1.4-0.5,4.9,0.2,5.9-0.6c0.3-0.2,0.4-1.4,0.6-1.6c1.7-2.4,1.3-4.2,1.1-6.9
											c-0.1-2.2-0.1-4.3,2.5-4.5c1.8-0.1,3.2,1.3,4.8,1.7c1.8,0.5,1.1,0.8,2.5-0.1c2.4-1.7,0.8-4.9,2.7-6.9
											c2.6-2.7,4.4,1.2,6.5,1.5c4.6,0.6,3.1-4,5.9-5.8c3.3-2.1,3.6,2.5,5.6,2.6c1.8,0.1,5-3.3,6.5-3.9c4.6-1.9,6.8,3.4,11.2,2.7
											c3.2-0.5,4-0.9,6.9,0.9c2.8,1.7,3.4,0.5,6.6,0.5c2.2,0,3.6,1.8,5.4,2c0.9,0.1,1.8-0.9,2.8-0.8c3.5,0.2,3.8,4.8,6.6,6.1
											c2.6,1.2,5.6-0.5,8.1-0.8c6.2-0.7,2,5.1,2.1,8.5c2.4,0.6,4.9-1.7,7.4-1.3c3.8,0.7,2.4,4.6,1.5,7.3c2.7,0,9.6-3,11.3,0.8
											c0.9,1.9-1.2,4.5-1.1,6.5c0,2.8,2.1,5.1,2.8,7.7C218.9,69.9,220.3,79.4,217.8,82.6z"/>
									</g>
								</mask>
								<g id="Skin_x2F__xD83D__xDC76__xD83C__xDFFD_-03-Brown_1_" class="st23">
									<g id="Color_1_" transform="translate(0.000000, 0.000000) ">
										<rect x="13.8" y="5" class="st24" width="288.6" height="306.1"/>
									</g>
								</g>
							</g>
						</g>
					</g>
				</g>
			</g>
		</g>
	</g>
</g>
</svg>
